<?xml version="1.0" encoding="UTF-8"?>
<svg xmlns="http://www.w3.org/2000/svg" xmlns:xlink="http://www.w3.org/1999/xlink" version="1.1" viewBox="0 85.333 512 341.333">
<rect y="85.331" fill="#FFFFFF" width="512" height="341.337"/>
<g>
	<rect y="85.331" fill="#6DA544" width="512" height="48.762"/>
	<rect y="182.856" fill="#6DA544" width="512" height="48.762"/>
	<rect y="280.381" fill="#6DA544" width="512" height="48.762"/>
	<rect y="377.895" fill="#6DA544" width="512" height="48.762"/>
</g>
<rect y="85.331" fill="#D80027" width="256" height="146.287"/>
<g>
	<polygon fill="#FFFFFF" points="116.87,199.777 109.449,184.937 109.449,155.255 128,140.415 146.551,155.255    146.551,177.516 153.971,170.096 153.971,184.937 139.13,199.777  "/>
	<polygon fill="#FFFFFF" points="76.959,154.266 78.924,160.313 85.281,160.313 80.138,164.049 82.104,170.096    76.959,166.359 71.816,170.096 73.78,164.049 68.638,160.313 74.995,160.313  "/>
	<polygon fill="#FFFFFF" points="91.8,139.425 93.765,145.473 100.123,145.473 94.979,149.209 96.944,155.255 91.8,151.519    86.657,155.255 88.622,149.209 83.478,145.473 89.836,145.473  "/>
	<polygon fill="#FFFFFF" points="106.641,124.584 108.605,130.631 114.963,130.631 109.82,134.369 111.784,140.415    106.641,136.678 101.497,140.415 103.462,134.369 98.318,130.631 104.676,130.631  "/>
	<polygon fill="#FFFFFF" points="179.041,154.266 177.076,160.313 170.719,160.313 175.862,164.049 173.896,170.096    179.041,166.359 184.184,170.096 182.22,164.049 187.362,160.313 181.005,160.313  "/>
	<polygon fill="#FFFFFF" points="164.199,139.425 162.235,145.473 155.878,145.473 161.021,149.209 159.056,155.255    164.199,151.519 169.344,155.255 167.378,149.209 172.522,145.473 166.164,145.473  "/>
	<polygon fill="#FFFFFF" points="149.359,124.584 147.395,130.631 141.037,130.631 146.18,134.369 144.216,140.415    149.359,136.678 154.503,140.415 152.538,134.369 157.682,130.631 151.324,130.631  "/>
	<polygon fill="#FFFFFF" points="128,117.164 126.035,123.212 119.678,123.212 124.821,126.948 122.857,132.994 128,129.258    133.143,132.994 131.179,126.948 136.322,123.212 129.966,123.212  "/>
</g>
</svg>
