<?xml version="1.0" encoding="UTF-8"?>

<svg xmlns="http://www.w3.org/2000/svg" viewBox="0 85.333 512 341.333">
<rect y="85.331" fill="#D80027" width="512" height="341.326"/>
<rect x="330.207" y="85.331" fill="#496E2D" width="181.793" height="341.337"/>
<rect y="85.331" width="181.793" height="341.337"/>
<g>
	<path fill="#FFDA44" d="M256,196.632c-32.785,0-59.362,26.577-59.362,59.362s26.577,59.362,59.362,59.362   s59.362-26.577,59.362-59.362S288.785,196.632,256,196.632z M256,293.095c-20.491,0-37.101-16.611-37.101-37.101   s16.61-37.101,37.101-37.101s37.101,16.61,37.101,37.101S276.491,293.095,256,293.095z"/>
	<path fill="#FFDA44" d="M256,233.734c-8.196,0-14.84,6.644-14.84,14.84v22.261h29.682v-22.261   C270.84,240.377,264.196,233.734,256,233.734z"/>
</g>
</svg>
