<?xml version="1.0" encoding="UTF-8"?>

<svg xmlns="http://www.w3.org/2000/svg" viewBox="0 85.333 512 341.333">
<rect y="85.334" fill="#0052B4" width="512" height="341.337"/>
<path fill="#FFFFFF" d="M427.757,295.819c4.907-6.752,8.185-14.997,8.185-24.982v-74.203  c-6.202,4.659-13.907,7.421-22.261,7.421c-12.138,0-22.912-5.829-29.682-14.839c-6.77,9.01-17.544,14.839-29.682,14.839  c-8.353,0-16.059-2.761-22.261-7.418v74.201c0,9.985,3.278,18.232,8.185,24.982H427.757z"/>
<g>
	<path fill="#FF9811" d="M412.32,257.071c2.362-5.763,4.2-14.188,4.2-18.382c0-6.737-8.783-12.198-8.783-12.198   s-8.783,5.461-8.783,12.198c0,4.194,1.838,12.619,4.2,18.382l-5.07,11.448c2.98,1.212,6.237,1.885,9.653,1.885   c3.416,0,6.673-0.673,9.653-1.885L412.32,257.071z"/>
	<path fill="#FF9811" d="M377.994,220.004c-6.171,0.836-14.385,3.459-18.017,5.556c-5.835,3.369-6.173,13.704-6.173,13.704   s9.121,4.875,14.955,1.507c3.632-2.097,10.008-7.9,13.816-12.828l12.451-1.333c-0.441-3.186-1.488-6.343-3.194-9.302   c-1.71-2.958-3.919-5.444-6.459-7.418L377.994,220.004z"/>
	<path fill="#FF9811" d="M363.059,268.267c3.809,4.925,10.187,10.728,13.818,12.824c5.835,3.368,14.955-1.507,14.955-1.507   s-0.339-10.336-6.173-13.705c-3.633-2.097-11.846-4.717-18.019-5.552l-7.378-10.115c-2.539,1.975-4.75,4.461-6.459,7.416   c-1.707,2.96-2.753,6.116-3.194,9.304L363.059,268.267z"/>
</g>
<path fill="#338AF3" d="M338.408,293.099C352.267,315.335,384,322.778,384,322.778s31.733-7.443,45.592-29.679  L338.408,293.099L338.408,293.099z"/>
<g>
	<path fill="#FFFFFF" d="M256,186.665H144.006v69.331H160v-48.918l73.372,48.918H256l-80.006-53.337h22.628L256,240.915   v-7.535l-46.069-30.72H256V186.665z"/>
	<path fill="#FFFFFF" d="M175.994,138.66L256,85.334h-22.628L160,134.241V85.334h-15.994v69.331H256V138.66h-46.069   L256,107.951v-7.535l-57.377,38.244H175.994z"/>
	<path fill="#FFFFFF" d="M96,85.334v48.907L22.628,85.334H0l80.006,53.326H57.377L0,100.415v7.536l46.069,30.709H0v16.006   h111.994V85.334H96z"/>
	<path fill="#FFFFFF" d="M0,186.665v15.994h46.069L0,233.38v7.535l57.377-38.255h22.628L0,255.997h22.628L96,207.078v48.918   h15.994v-69.331L0,186.665L0,186.665z"/>
</g>
<g>
	<polygon fill="#D80027" points="144,85.329 112,85.329 112,154.663 0,154.663 0,186.663 112,186.663 112,255.997    144,255.997 144,186.663 256,186.663 256,154.663 144,154.663  "/>
	<polygon fill="#D80027" points="80,138.663 0,85.329 0,100.412 57.377,138.663  "/>
	<polygon fill="#D80027" points="176,138.663 198.623,138.663 256,100.412 256,85.329  "/>
	<polygon fill="#D80027" points="57.377,202.663 0,240.915 0,255.997 80,202.663  "/>
	<polygon fill="#D80027" points="176,202.663 256,255.997 256,240.915 198.623,202.663  "/>
</g>
</svg>
