<?xml version="1.0" encoding="UTF-8"?>

<svg xmlns="http://www.w3.org/2000/svg" viewBox="0 85.333 512 341.333">
<rect y="85.331" fill="#D80027" width="512" height="341.337"/>
<path d="M352.464,212h-61.817c3.817-3.996,6.165-9.405,6.165-15.368c0-12.295-9.966-22.261-22.261-22.261  c-7.745,0-14.563,3.957-18.551,9.958c-3.988-6-10.805-9.958-18.551-9.958c-12.295,0-22.261,9.966-22.261,22.261  c0,5.963,2.349,11.372,6.165,15.368h-61.817c0,16.393,14.278,29.68,30.67,29.68h-0.988c0,16.393,13.289,29.682,29.682,29.682  c0,5.309,1.399,10.287,3.842,14.595l-24.619,24.621l18.888,18.888l26.794-26.794c1.05,0.385,2.136,0.692,3.257,0.903l-16.191,36.557  L256,367.299l25.13-27.167l-16.191-36.557c1.122-0.21,2.207-0.518,3.257-0.903l26.794,26.794l18.888-18.888l-24.621-24.621  c2.443-4.309,3.842-9.286,3.842-14.595c16.393,0,29.682-13.289,29.682-29.682h-0.988C338.186,241.681,352.464,228.393,352.464,212z"/>
</svg>
