<?xml version="1.0" encoding="UTF-8"?>

<svg xmlns="http://www.w3.org/2000/svg" viewBox="0 85.333 512 341.333">
<rect y="85.331" width="512" height="341.337"/>
<rect y="85.331" fill="#D80027" width="512" height="170.663"/>
<g>
	<polygon fill="#FFDA44" points="232.598,221.069 247.067,231.569 241.554,248.574 256.01,238.058 270.48,248.557    264.944,231.558 279.402,221.04 261.525,221.052 255.99,204.052 250.475,221.058  "/>
	<path fill="#FFDA44" d="M298.666,182.094c-13.449-7.765-28.153-11.43-42.666-11.404v22.255   c10.728-0.019,21.595,2.688,31.536,8.427c30.119,17.389,40.476,56.039,23.086,86.158c-17.388,30.119-56.04,40.476-86.158,23.087   c-8.774-5.065-15.858-11.944-21.08-19.882l-18.584,12.27c7.066,10.739,16.662,20.037,28.533,26.891   c40.75,23.526,93.04,9.515,116.567-31.234C353.427,257.912,339.416,205.62,298.666,182.094z"/>
	<path fill="#FFDA44" d="M206.792,241.154c-5.9,10.786-1.939,24.313,8.846,30.214l72.299,39.506   c-4.916,8.988-2.306,19.927,6.682,24.843L314.15,346.4c8.988,4.917,20.261,1.616,25.178-7.372l10.683-19.529L206.792,241.154z"/>
</g>
</svg>
