<svg xmlns="http://www.w3.org/2000/svg" viewBox="0 0 744 496"><path fill="#3a7dce" d="M0 0h744v496H0z"/><path fill="#fff" d="M183 239c-4-9-4-9-4-17h-3c-2 0-2 8-6 6 0 0 3-6-1-8v-8s-5 3-8-6c-2-2-4 2-4 2s1 3-1 3c-2-2-4-1-8-3-3-3 1-6-5-8 4-10 4-8 14-12-6-4-6-4-10-10-6-2-8-4-14-8-8-11-13-31-13-45 6-5 13 16 23 22l14 6c8 4 10 9 16 13l18 6c9 6 13 14 19 16 6 0 8-4 10-4 12-1 18-2 20-6 2-3 8 2 24-4l-2-8s5-4 10-2c0-4 0-14 6-18-4-4-1-7-1-7s3-3 3-5c-2-8 2-9 2-11 1-3-2-2-1-6 1-3 6-4 7-7s-1-5-1-5V93c11-3 14-12 18-9 2-12 4-16 16-16 2-3-4-7-2-8 4 0 7 0 12 6 2 2 2-3 3-3 2-1 5-1 6-3l3-10c2-3 3 1 5 8 9 0 28 2 36 4 6 2 10-1 16-2 4 4 8 1 11 10 3 5 8 1 9 2 7 19 30 6 32 7 3 0 7 8 9 8 4-1 3-4 6-3-1 8 7 16 7 21 0 0 1 1 3-1 2-1 3-5 5-5l9 1 21 7c2 4 4 5 8 5 3 2 1 5 2 5 5-2 6-4 10-2s8 6 10 10c0 2-2 10 0 22 1 4 2 8 6 15-1 7 5 19 5 22 0 4-3 6-5 10 8 6 0 16-4 22 30 6 16 18 41 12-6 15-4 13 2 28-12 8 0 10-9 20 0 1 5 9 13 9-2 16-8 10-6 35-16-1-10 18-21 16 1 11 6 12 4 24-8 2-8 2-12 8l-6-2c-2 10-6 12 0 23h-10c0 3 4 4 4 8 0 1-11 7-20 8-2 5 6 10 5 13-9 1-13 13-13 13s5 2 4 4c-3-2-4-2-8-2-2 1-7 0-12 8-5 2-8 1-12 6-1-5-4 0-7 2l-8 7 2-7-10 2h-1c-1 1-1-5-3-5s-7 7-9 8c-2 0-2-3-4-3l-6 8c-1 1-6-4-10-4-19 8-23-13-26-2-4-2-3-1-7 1-3 0-3-4-6-4-5 0-4 5-7 3-2-9-15-7-16-11-1-5 5-5 7-8 2-4-1-5 5-9 9-6 4-8 6-13 2-6 2-8 0-13l-8-19c-4-1-4 7-10 9-12 4-34-10-37-10-4 0-20 4-19-4-3 8-11 2-12 2-8 0-5 6-10 6l-28-3v4l-16-8-14-4c-12-4-6-14-26-8v-12h-11c5-24 0-12-2-34l-8 2c-8-11 12-9-6-17 0 0 1-12-4-8-1 1 2 6 2 6-16-2-20-6-20-22 0 0 13 2 12 0-2-3-4-23-4-24 0-3 13-9 10-16h6"/><g fill="none" stroke="#fff" stroke-width="2.5" stroke-linejoin="round"><path d="M596 298v0zM120 148s-4 0-3 2c1-2 2-2 3-2zM120 142c-2 0-4 0-3 2 1-2 3-2 3-2zM132 178s3 0 2 3l-2-3z"/></g></svg>