<?xml version="1.0" encoding="UTF-8"?>

<svg xmlns="http://www.w3.org/2000/svg" viewBox="0 85.333 512 341.333">
<rect y="83.923" fill="#0052B4" width="512" height="341.326"/>
<polygon fill="#D80027" points="512,108.546 59.699,258.293 512,408.038 512,428.077 0,258.293 512,88.508 "/>
<polyline fill="#FFFFFF" points="512,374.201 512,408.038 59.699,258.293 512,108.546 512,142.384 "/>
<path fill="#A2001D" d="M493.301,253.493h-29.275c7.612-9.139,7.141-22.736-1.432-31.31c9.084-9.082,9.084-23.81,0-32.895  l-0.546,0.549c9.082-9.082,9.63-24.359,0.546-33.441L331.019,287.971c9.084,9.085,23.552,8.976,32.634-0.108l2.532-2.314  l63.003-5.728v27.097h21.37v-29.04l32.056-2.913L493.301,253.493z"/>
<polygon fill="#FFDA44" points="333.03,316.084 311.652,305.399 333.03,294.714 471.938,294.714 471.938,316.084 "/>
</svg>
