<?xml version="1.0" encoding="UTF-8"?>

<svg xmlns="http://www.w3.org/2000/svg" viewBox="0 85.333 512 341.333">
<rect y="85.333" fill="#0052B4" width="512" height="341.337"/>
<g>
	<path fill="#FFFFFF" d="M223.397,255.996c0.273-0.304,0.543-0.609,0.813-0.916c-0.27,0.308-0.546,0.61-0.82,0.916H223.397z"/>
	<polygon fill="#FFFFFF" points="189.217,297.923 200.175,320.836 224.922,315.118 213.839,337.971 233.739,353.752    208.963,359.337 209.032,384.735 189.217,368.845 169.403,384.735 169.472,359.337 144.696,353.752 164.596,337.971    153.513,315.118 178.259,320.836  "/>
	<polygon fill="#FFFFFF" points="387.076,326.387 392.303,337.316 404.106,334.588 398.82,345.488 408.312,353.016    396.494,355.679 396.526,367.793 387.076,360.215 377.626,367.793 377.658,355.679 365.841,353.016 375.332,345.488    370.047,334.588 381.85,337.316  "/>
	<polygon fill="#FFFFFF" points="338.453,210.448 343.68,221.378 355.483,218.649 350.197,229.55 359.688,237.078    347.871,239.741 347.903,251.856 338.453,244.276 329.002,251.856 329.035,239.741 317.217,237.078 326.708,229.55    321.424,218.649 333.226,221.378  "/>
	<polygon fill="#FFFFFF" points="387.076,144.198 392.303,155.128 404.106,152.398 398.82,163.3 408.311,170.827    396.494,173.491 396.526,185.605 387.076,178.025 377.626,185.605 377.658,173.491 365.841,170.827 375.332,163.3 370.047,152.398    381.85,155.128  "/>
	<polygon fill="#FFFFFF" points="429.547,193.886 434.774,204.815 446.576,202.087 441.292,212.987 450.783,220.514    438.965,223.178 438.998,235.292 429.547,227.714 420.097,235.292 420.129,223.178 408.312,220.514 417.803,212.987    412.517,202.087 424.32,204.815  "/>
	<polygon fill="#FFFFFF" points="399.179,251.856 403.289,264.508 416.593,264.508 405.83,272.328 409.942,284.98    399.179,277.161 388.414,284.98 392.526,272.328 381.763,264.508 395.067,264.508  "/>
	<polygon fill="#FFFFFF" points="256,85.333 256,115.886 210.833,140.985 256,140.985 256,200.344 196.897,200.344    256,233.179 256,255.996 229.32,255.996 155.826,215.17 155.826,255.996 100.174,255.996 100.174,207.423 12.744,255.996    0,255.996 0,225.443 45.167,200.344 0,200.344 0,140.985 59.103,140.985 0,108.139 0,85.333 26.68,85.333 100.174,126.16    100.174,85.333 155.826,85.333 155.826,133.906 243.256,85.333  "/>
</g>
<polygon fill="#D80027" points="144,85.33 112,85.33 112,154.662 0,154.662 0,186.662 112,186.662 112,255.996 144,255.996   144,186.662 256,186.662 256,154.662 144,154.662 "/>
<polygon fill="#0052B4" points="155.826,200.344 256,255.996 256,240.259 184.153,200.344 "/>
<polygon fill="#FFFFFF" points="155.826,200.344 256,255.996 256,240.259 184.153,200.344 "/>
<g>
	<polygon fill="#D80027" points="155.826,200.344 256,255.996 256,240.259 184.153,200.344  "/>
	<polygon fill="#D80027" points="71.846,200.344 0,240.259 0,255.996 0,255.996 100.174,200.344  "/>
</g>
<polygon fill="#0052B4" points="100.174,140.982 0,85.33 0,101.067 71.847,140.982 "/>
<polygon fill="#FFFFFF" points="100.174,140.982 0,85.33 0,101.067 71.847,140.982 "/>
<g>
	<polygon fill="#D80027" points="100.174,140.982 0,85.33 0,101.067 71.847,140.982  "/>
	<polygon fill="#D80027" points="184.154,140.982 256,101.067 256,85.33 256,85.33 155.826,140.982  "/>
</g>
</svg>
