<?xml version="1.0" encoding="UTF-8"?>

<svg xmlns="http://www.w3.org/2000/svg" viewBox="0 85.333 512 341.333">
<rect y="85.334" fill="#0052B4" width="512" height="341.337"/>
<polyline fill="#FFDA44" points="99.905,85.329 441.238,85.329 441.238,426.663 "/>
<g>
	<polygon fill="#FFFFFF" points="36.561,100.645 51.404,89.838 66.271,100.632 61.292,85.33 41.525,85.33  "/>
	<polygon fill="#FFFFFF" points="88.332,103.632 82.649,86.16 76.977,103.632 58.612,103.644 73.479,114.44 67.818,131.901    82.661,121.095 97.527,131.89 91.843,114.416 106.697,103.621  "/>
	<polygon fill="#FFFFFF" points="119.59,134.89 113.906,117.416 108.233,134.89 89.868,134.901 104.735,145.696    99.074,163.158 113.918,152.351 128.784,163.147 123.099,145.673 137.955,134.879  "/>
	<polygon fill="#FFFFFF" points="150.846,166.146 145.163,148.673 139.49,166.146 121.126,166.157 135.992,176.953    130.331,194.414 145.174,183.608 160.04,194.403 154.357,176.929 169.212,166.135  "/>
	<polygon fill="#FFFFFF" points="182.103,197.403 176.42,179.929 170.748,197.403 152.382,197.414 167.248,208.209    161.588,225.671 176.431,214.864 191.297,225.66 185.613,208.187 200.468,197.392  "/>
	<polygon fill="#FFFFFF" points="213.359,228.659 207.676,211.187 202.004,228.659 183.639,228.671 198.505,239.466    192.845,256.928 207.687,246.122 222.553,256.916 216.87,239.443 231.725,228.648  "/>
	<polygon fill="#FFFFFF" points="244.616,259.916 238.933,242.443 233.261,259.916 214.895,259.928 229.762,270.723    224.101,288.185 238.945,277.378 253.811,288.172 248.126,270.7 262.981,259.906  "/>
	<polygon fill="#FFFFFF" points="275.872,291.173 270.19,273.7 264.517,291.173 246.152,291.184 261.019,301.98    255.358,319.441 270.201,308.635 285.067,319.43 279.384,301.956 294.237,291.162  "/>
	<polygon fill="#FFFFFF" points="307.13,322.43 301.447,304.956 295.773,322.43 277.409,322.441 292.275,333.236    286.614,350.698 301.458,339.891 316.324,350.687 310.64,333.213 325.495,322.419  "/>
	<polygon fill="#FFFFFF" points="338.386,353.686 332.703,336.214 327.031,353.686 308.666,353.698 323.532,364.493    317.871,381.955 332.714,371.148 347.58,381.943 341.897,364.471 356.752,353.675  "/>
	<polygon fill="#FFFFFF" points="369.643,384.943 363.96,367.47 358.288,384.943 339.922,384.955 354.788,395.749    349.128,413.212 363.971,402.405 378.837,413.2 373.153,395.727 388.008,384.932  "/>
	<polygon fill="#FFFFFF" points="395.216,398.727 389.544,416.199 371.179,416.211 385.573,426.664 404.851,426.664    419.265,416.188 400.899,416.199  "/>
</g>
</svg>
