<?xml version="1.0" encoding="UTF-8"?>

<svg xmlns="http://www.w3.org/2000/svg" viewBox="0 85.333 512 341.333">
<rect y="85.331" fill="#FFDA44" width="512" height="341.337"/>
<g>
	<rect y="85.331" fill="#0052B4" width="170.663" height="341.337"/>
	<rect x="341.337" y="85.331" fill="#0052B4" width="170.663" height="341.337"/>
</g>
<path d="M307.942,189.212l9.955,4.978L307.942,189.212l-9.955-4.978c-0.6,1.201-13.599,27.649-15.723,68.05H267.13v-63.073  L256,174.372l-11.13,14.84v63.073h-15.133c-2.124-40.401-15.123-66.849-15.723-68.05l-19.911,9.955  c0.137,0.273,13.666,27.811,13.666,69.226v11.13h37.101v63.073h22.261v-63.073h37.101v-11.13c0-21.413,3.705-39.068,6.813-50.109  c3.389-12.04,6.831-19.072,6.865-19.141L307.942,189.212z"/>
</svg>
