<?xml version="1.0" encoding="UTF-8"?>

<svg xmlns="http://www.w3.org/2000/svg" viewBox="0 85.333 512 341.333">
<rect y="85.337" fill="#D80027" width="512" height="341.326"/>
<g>
	<polygon fill="#6DA544" points="215.864,256.006 0,399.911 0,112.089  "/>
	<polygon fill="#6DA544" points="512,112.089 512,399.911 296.136,256.006  "/>
</g>
<polygon fill="#0052B4" points="512,112.089 296.136,256.006 512,399.911 512,426.668 471.875,426.668 256,282.752   40.125,426.668 0,426.668 0,399.911 215.864,256.006 0,112.089 0,85.331 40.125,85.331 256,229.248 471.875,85.331 512,85.331 "/>
<g>
	<polygon fill="#FFFFFF" points="512,112.089 296.136,256.006 512,399.911 512,426.668 471.875,426.668 256,282.752    40.125,426.668 0,426.668 0,399.911 215.864,256.006 0,112.089 0,85.331 40.125,85.331 256,229.248 471.875,85.331 512,85.331  "/>
	<circle fill="#FFFFFF" cx="256" cy="256" r="74.207"/>
</g>
<g>
	<polygon fill="#D80027" points="256,204.058 262.426,215.188 275.278,215.188 268.852,226.318 275.278,237.449    262.426,237.449 256,248.579 249.574,237.449 236.722,237.449 243.148,226.318 236.722,215.188 249.574,215.188  "/>
	<polygon fill="#D80027" points="223.337,256 229.762,267.13 242.615,267.13 236.189,278.261 242.615,289.391    229.762,289.391 223.337,300.522 216.91,289.391 204.058,289.391 210.484,278.261 204.058,267.13 216.91,267.13  "/>
	<polygon fill="#D80027" points="288.663,256 295.09,267.13 307.942,267.13 301.516,278.261 307.942,289.391 295.09,289.391    288.663,300.522 282.238,289.391 269.385,289.391 275.811,278.261 269.385,267.13 282.238,267.13  "/>
</g>
</svg>
