<svg xmlns="http://www.w3.org/2000/svg" viewBox="0 85.333 512 341.333"><rect x="0" y="85.333" width="512" height="341.333" fill="#ffffff"/><g fill="#d0d0d0"><path d="M208.9 322.1a106 106 0 01-52.6-29.7v31.1a129 129 0 0052.6 22.6v-24zM303 322.1a106 106 0 0052.7-29.7v31.1a129 129 0 01-52.6 22.6v-24z"/></g><g fill="#e6bc00"><path d="M199.8 254.7c-1 .2-2.3 2.8-2.7 7.1-.4 4.3-3.2 22.6-9 20.6-6-2-9.9-10.6-9.9-10.6l-8.2 12s5.5-2.2 11.2.4 7 4 8.6 2.3c1.6-1.5 5.3-6.2 8.3-5.8l3.3-23.8-1.6-2.2zM167.3 293.8s-1.4 11.4-.6 12.8c.7 1.3 22.3 6.4 22.3 6.4s-6.2 5.1-6.4 7.9c0 0-7.7 1.4-10.4 3.7L162 307.7l-.4-13.9h5.7z"/></g><path d="M160.4 190.3l.2-6s-7-.7-7.8 15l-2.5-7s-5.2 7-2 18.1l-1.4 1s-6.8-9-11-20.5c0 0-6.8 5.4 1.3 20.9l-10-12.7s-5 10.6 10 23.3l-14.2-10s-.8 11.4 12.8 18.8l-13.6-7.4s.4 11 16.3 16.5l-15-2.8s3.8 9 14.9 11.5a19.4 19.4 0 00-5 10.6l11.1-6.2s-5.3 5.5-3.8 13l17.2-17.2-2.3-1.1c13-2.4 10.3-3.4 10.3-3.4s-9.6-24.7-3.2-41.8c6.5-17 12.2-19.4 12.2-20.2 0-.8-7-1.7-14.5 7.6z" fill="#d0d0d0"/><path d="M173.7 200.2s22.4 23.5 22.8 25.7c.4 2.1-2.4 1.8-2.4 1.8s-5.5-7.1-13-9.9c-7.4-2.7-12.3-11.3-15.2-13.3-3-2 7.8-4.3 7.8-4.3z" fill="#e6bc00"/><path d="M166.3 205.9c3 1 9.6-.4 9.4-6.5-.2-6-6.3-8.4-10.8-7-4.5 1.3-13 7.6-7.7 19.8 5.3 12.1 13.2 16.6 14.8 27 0 0-7.1 1.1-10.8.2-3.2-.7-8.7-3.3-7.5-10.4 1.2-7 4-11.2 1.6-15-2.4-4-9.8-10.9-9.8-10.9s-16.1 41.2 13 52c0 0-13.8 13.2-20.7 26l4.1 1.1s-7.2 7.9-11.4 10.8c0 0 13.6 4.7 27-10.6 0 0 3.3 5.5 4 11.4h5.8s2-9.4 11-17.3c9-7.8 18.1-19 17.2-29.2-1-12-10-17.4-19.5-24.8-12.6-10-9.7-16.6-9.7-16.6z" fill="#e0e0e0"/><g fill="#e6bc00"><path d="M312.2 254.7c1 .2 2.3 2.8 2.7 7.1.4 4.3 3.2 22.6 9 20.6 6-2 9.9-10.6 9.9-10.6l8.2 12s-5.5-2.2-11.2.4-7 4-8.6 2.3c-1.6-1.5-5.3-6.2-8.3-5.8l-3.3-23.8 1.6-2.2zM344.7 293.8s1.4 11.4.6 12.8c-.7 1.3-22.3 6.4-22.3 6.4s6.2 5.1 6.4 7.9c0 0 7.7 1.4 10.4 3.7l10.2-16.9.4-13.9h-5.7z"/></g><path d="M351.6 190.3l-.2-6s7-.7 7.8 15l2.5-7s5.2 7 2 18.1l1.4 1s6.8-9 11-20.5c0 0 6.8 5.4-1.3 20.9l10-12.7s5 10.6-10 23.3l14.2-10s.8 11.4-12.8 18.8l13.6-7.4s-.4 11-16.3 16.5l15-2.8s-3.8 9-14.9 11.5c2.3 2.6 4.5 6 5 10.6l-11.1-6.2s5.3 5.5 3.8 13l-17.2-17.2 2.3-1.1c-13-2.4-10.3-3.4-10.3-3.4s9.6-24.7 3.2-41.8c-6.5-17-12.2-19.4-12.2-20.2 0-.8 7-1.7 14.5 7.6z" fill="#d0d0d0"/><path d="M338.3 200.2s-22.4 23.5-22.8 25.7c-.4 2.1 2.4 1.8 2.4 1.8s5.5-7.1 13-9.9c7.4-2.7 12.3-11.3 15.2-13.3s-7.8-4.3-7.8-4.3z" fill="#e6bc00"/><path d="M345.7 205.9c-3 1-9.6-.4-9.4-6.5.2-6 6.3-8.4 10.8-7 4.5 1.3 13 7.6 7.7 19.8s-13.2 16.6-14.8 27c0 0 7.1 1.1 10.8.2 3.2-.7 8.7-3.3 7.5-10.4-1.2-7-4-11.2-1.6-15s9.8-10.9 9.8-10.9 16.1 41.2-13 52c0 0 13.8 13.2 20.7 26l-4.1 1.1s7.2 7.9 11.4 10.8c0 0-13.6 4.7-27-10.6 0 0-3.3 5.5-4 11.4h-5.8s-2-9.4-11-17.3c-9-7.8-18.1-19-17.2-29.2 1-12 10-17.4 19.5-24.8 12.6-10 9.7-16.6 9.7-16.6z" fill="#e0e0e0"/><path fill="#464655" d="M199.4 166h113.1v22.8H199.4z"/><path d="M256 184h-56.6v75.5c0 14 9.5 51.8 56.6 66 47-14.2 56.5-52 56.5-66V184H256z" fill="#41479b"/><path d="M199.4 259.5c0 3.5.6 8.4 2.2 14h108.7a54.4 54.4 0 002.2-14v-28.3h-113v28.3z" fill="#ff4b55"/><g fill="#f5f5f5"><path d="M256 252.4l-6.6 16.5 6.6-3.3 6.6 3.3zM256 252.4l6.6-16.5-6.6 3.3-6.6-3.3zM256 252.4l-16.5-6.6 3.3 6.6-3.3 6.6zM256 252.4l16.5 6.6-3.3-6.6 3.3-6.6z"/></g><g fill="#f4ce23"><path d="M263.4 200.7c-1.1.2-2 .4-3 .8 1-2.5 1.7-4.8 1.1-6.4-1.5-4-4.4-3.3-5.5-6.2v-.1.1c-1.2 3-4 2.2-5.6 6.2-.6 1.6.1 4 1.1 6.4-.9-.4-1.8-.6-3-.8-2.2-.3-5.6 2-4.9 6.5s6 4.9 6 4.9c-.8-.8-1.4-2-1-3.2s3-2.3 4.3 1.9c1.3 4.2-3.3 10.2-3.3 10.2 1.6 0 2.8-.5 3.6-1-1.1 3.5 2.5 6.3 2.7 6.5h.1c.3-.2 3.9-3 2.8-6.5.8.5 2 1 3.5 1 0 0-4.6-6-3.2-10.2s4-3.1 4.3-1.9c.3 1.3-.3 2.4-1 3.2 0 0 5.2-.4 6-4.9.6-4.5-2.8-6.8-5-6.5zM298 200.7c-1 .2-2 .4-2.9.8 1-2.5 1.7-4.8 1-6.4-1.4-4-4.3-3.3-5.4-6.2v-.1.1c-1.2 3-4.1 2.2-5.6 6.2-.6 1.6 0 4 1 6.4-.8-.4-1.8-.6-2.9-.8-2.2-.3-5.6 2-5 6.5s6 4.9 6 4.9c-.7-.8-1.3-2-1-3.2.4-1.2 3-2.3 4.3 1.9s-3.2 10.2-3.2 10.2c1.6 0 2.7-.5 3.6-1-1.1 3.5 2.4 6.3 2.7 6.5.4-.2 4-3 2.8-6.5.9.5 2 1 3.6 1 0 0-4.6-6-3.3-10.2s4-3.1 4.3-1.9c.4 1.3-.2 2.4-1 3.2 0 0 5.3-.4 6-4.9.7-4.5-2.7-6.8-5-6.5zM228.7 200.7c-1 .2-2 .4-3 .8 1-2.5 1.8-4.8 1.2-6.4-1.6-4-4.4-3.3-5.6-6.2v-.1.1c-1.1 3-4 2.2-5.5 6.2-.6 1.6 0 4 1 6.4-.8-.4-1.8-.6-2.9-.8-2.2-.3-5.7 2-5 6.5s6 4.9 6 4.9c-.7-.8-1.4-2-1-3.2.4-1.2 3-2.3 4.3 1.9S215 221 215 221c1.5 0 2.7-.5 3.5-1-1 3.5 2.5 6.3 2.8 6.5.3-.2 3.9-3 2.8-6.5.8.5 2 1 3.5 1 0 0-4.5-6-3.2-10.2s4-3.1 4.3-1.9c.4 1.3-.3 2.4-1 3.2 0 0 5.2-.4 6-4.9.7-4.5-2.7-6.8-5-6.5zM267 297.8s-2.5-.4-2.7 2.1v.7l-1-.2a2.4 2.4 0 000 4.8h.3c-.4 1.1-1 2.2-1.7 3h-3.3c-.8-1-1-2.9-1.1-4.2h.1a2 2 0 000-3.9c.2-.3.4-.6.4-1a2 2 0 10-4 0c0 .4.1.7.3 1a2 2 0 000 4h.2c0 1.2-.3 3-1.2 4h-3.2a6.8 6.8 0 01-1.7-3l.3.1a2.4 2.4 0 000-4.8c-.4 0-.7 0-1 .2v-.7c-.3-2.5-2.8-2.1-2.8-2.1 1.6 4.8 1.2 10.3 1.2 10.3v4.9h19.7V308s-.3-5.5 1.2-10.3zM244 279s-2.6-.4-2.8 2.1v.7c-.3-.2-.7-.2-1-.2a2.4 2.4 0 000 4.8h.3c-.4 1-1 2.1-1.8 2.9h-3.2c-.8-1-1-2.8-1.1-4.1h.1a2 2 0 000-4c.2-.2.3-.6.3-1a2 2 0 10-4 0c0 .4.2.8.4 1a2 2 0 000 4h.2c0 1.3-.3 3.1-1.2 4H227a6.8 6.8 0 01-1.7-2.9h.3a2.4 2.4 0 000-4.7c-.4 0-.8 0-1 .2v-.7c-.3-2.5-2.8-2.1-2.8-2.1 1.6 4.7 1.2 10.3 1.2 10.3v4.8h19.7v-4.8s-.3-5.6 1.2-10.3zM290.1 279s-2.5-.4-2.7 2.1v.7c-.3-.2-.6-.2-1-.2a2.4 2.4 0 100 4.8h.3c-.4 1-1 2.1-1.7 2.9h-3.3c-.8-1-1-2.8-1.1-4.1h.1a2 2 0 000-4c.2-.2.4-.6.4-1a2 2 0 10-4 0c0 .4.1.8.3 1a2 2 0 000 4h.2c0 1.3-.3 3.1-1.2 4h-3.2a6.8 6.8 0 01-1.7-2.9h.3a2.4 2.4 0 000-4.7c-.4 0-.7 0-1 .2v-.7c-.2-2.5-2.8-2.1-2.8-2.1 1.6 4.7 1.2 10.3 1.2 10.3v4.8H289v-4.8s-.4-5.6 1.1-10.3zM329.1 155.2l-8.1-3-2.4 6.6-4-1.3 2.2-6.7c-2.7-1-5.5-1.8-8.3-2.5l-1.9 6.8-4-1 1.7-7-8.4-1.8L293 159l5.2 1.2-1 4.5a179.3 179.3 0 00-31-4.5l.3-4.7 5.3.4 1.3-14-8.6-.6-.3 7-4.2-.1.2-7h-8.6l.1 7-4.1.1-.3-7-8.6.5L240 156l5.3-.4.3 4.7c-10.4.6-20.7 2.1-30.9 4.5l-1-4.5c1.7-.5 3.4-.8 5.2-1.2l-2.8-13.8a197 197 0 00-8.5 1.9l1.8 6.8-4 1.1-2-6.8c-2.7.7-5.5 1.6-8.3 2.5l2.2 6.7-4 1.3-2.3-6.7-8.2 3 5.2 13.2 5-1.9 6.5 17.7a164.7 164.7 0 01113 0l6.4-17.7 5 2 5.2-13.2z"/></g><path d="M256 379.6c28 0 54.1-9 75.4-24.3v-30.8a105.7 105.7 0 01-151.6-.9v31.1a128.8 128.8 0 0076.2 24.9z" fill="#dfdfdf"/></svg>