<?xml version="1.0" encoding="UTF-8"?>

<svg xmlns="http://www.w3.org/2000/svg" viewBox="0 85.333 512 341.333">
<rect y="85.337" fill="#FFDA44" width="512" height="341.326"/>
<polygon points="0,199.078 512,406.261 512,359.591 273.232,265.198 0,152.412 "/>
<polyline fill="#FFFFFF" points="512,359.588 512,312.923 0,105.739 0,152.412 "/>
<g>
	<path fill="#D80027" d="M304.224,237.452c0,26.633-21.591,48.224-48.224,48.224s-48.224-21.591-48.224-48.224   c0-8.304,2.099-16.118,5.796-22.94c-10.465,10.702-16.925,25.337-16.925,41.488c0,32.779,26.573,59.353,59.353,59.353   s59.353-26.574,59.353-59.353c0-16.15-6.46-30.786-16.925-41.488C302.125,221.334,304.224,229.148,304.224,237.452z"/>
	<rect x="244.87" y="181.805" fill="#D80027" width="22.258" height="111.282"/>
	<path fill="#D80027" d="M293.095,204.066h-74.191c0,5.122,4.461,9.274,9.583,9.274h-0.309c0,5.122,4.153,9.274,9.274,9.274   c0,5.122,4.153,9.274,9.274,9.274h18.548c5.122,0,9.274-4.152,9.274-9.274c5.122,0,9.274-4.152,9.274-9.274h-0.308   C288.633,213.34,293.095,209.189,293.095,204.066z"/>
	<rect x="204.065" y="300.511" fill="#D80027" width="103.869" height="22.258"/>
	<rect x="278.261" y="307.935" fill="#D80027" width="44.514" height="22.258"/>
	<rect x="189.229" y="307.935" fill="#D80027" width="44.514" height="22.258"/>
</g>
</svg>
