<?xml version="1.0" encoding="UTF-8"?>

<svg xmlns="http://www.w3.org/2000/svg" viewBox="0 85.333 512 341.333">
<rect y="85.337" fill="#FFFFFF" width="512" height="341.326"/>
<polygon fill="#0052B4" points="0,426.663 512,426.663 512,85.337 512,85.337 "/>
<polygon fill="#FFDA44" points="250.435,85.337 0,85.337 0,85.337 0,252.282 "/>
<path d="M188.052,250.239l14.708-7.967l-14.708-7.967c-3.434-22.308-21.06-39.934-43.366-43.366l-7.967-14.708l-7.967,14.708  c-22.308,3.434-39.933,21.06-43.366,43.366l-14.707,7.968l14.708,7.967c3.434,22.308,21.06,39.934,43.366,43.366l7.966,14.707  l7.967-14.708C166.993,290.173,184.618,272.546,188.052,250.239z M136.718,271.953c-16.393,0-29.682-13.289-29.682-29.682  s13.289-29.68,29.682-29.68S166.4,225.88,166.4,242.273S153.111,271.953,136.718,271.953z"/>
<polygon fill="#D80027" points="136.718,220.012 143.145,231.142 155.997,231.142 149.571,242.273 155.997,253.403   143.145,253.403 136.718,264.534 130.293,253.403 117.441,253.403 123.866,242.273 117.441,231.142 130.293,231.142 "/>
</svg>
