<?xml version="1.0" encoding="UTF-8"?>

<svg xmlns="http://www.w3.org/2000/svg" viewBox="0 85.333 512 341.333">
<rect y="85.333" fill="#FF9811" width="512" height="341.337"/>
<polyline fill="#FFDA44" points="512,85.33 0,85.33 0,426.662 "/>
<path fill="#FFFFFF" d="M352.546,181.793v-29.682h-56.891l-4.346,4.346c-15.459,15.459-12.859,33.494-10.96,46.662  c1.761,12.216,1.972,16.894-2.57,21.437c-4.542,4.542-9.223,4.331-21.437,2.57c-13.167-1.898-31.202-4.499-46.661,10.959  c-15.458,15.459-12.857,33.493-10.957,46.66c1.762,12.213,1.973,16.893-2.568,21.434c-4.542,4.54-9.223,4.329-21.434,2.568  c-4.762-0.687-9.686-1.397-14.94-1.455l-0.326,29.679c3.289,0.037,7.049,0.579,11.029,1.152c4.712,0.68,10.045,1.45,15.663,1.45  c5.821,0,11.945-0.83,17.993-3.442v23.747h44.522v-22.261h-22.261v-14.84h14.84v-22.261H229.38  c0.563-7.201-0.426-14.097-1.28-20.009c-1.762-12.213-1.973-16.893,2.568-21.434c4.542-4.542,9.222-4.332,21.437-2.57  c9.594,1.384,21.774,3.131,33.658-1.999v23.751h44.522v-22.261h-22.261v-14.84h14.84v-22.261h-11.861  c0.563-7.202-0.425-14.097-1.278-20.011c-1.23-8.534-1.704-13.39-0.329-17.091H352.546z"/>
</svg>
