<?xml version="1.0" encoding="UTF-8"?>

<svg xmlns="http://www.w3.org/2000/svg" viewBox="0 85.333 512 341.333">
<rect x="0.556" y="85.523" fill="#6DA544" width="511.444" height="340.955"/>
<polyline fill="#A2001D" points="0,315.298 511.444,315.298 511.444,85.52 511.444,85.52 0,85.52 0,85.52 "/>
<polygon fill="#FFFFFF" points="100.065,315.298 100.065,300.474 100.065,85.52 0,85.52 0,426.482 511.444,426.482   511.444,426.482 100.065,426.482 "/>
<g>
	<polygon fill="#A2001D" points="68.564,243.647 50.033,210.028 68.564,176.937 87.093,210.028  "/>
	<polygon fill="#A2001D" points="31.502,243.647 12.972,210.028 31.502,176.937 50.033,210.028  "/>
	<polygon fill="#A2001D" points="68.564,335.064 50.033,301.446 68.564,268.354 87.093,301.446  "/>
	<polygon fill="#A2001D" points="31.502,335.064 12.972,301.446 31.502,268.354 50.033,301.446  "/>
	<polygon fill="#A2001D" points="68.564,426.482 50.033,392.863 68.564,359.771 87.093,392.863  "/>
	<polygon fill="#A2001D" points="31.502,426.482 12.972,392.863 31.502,359.771 50.033,392.863  "/>
	<polygon fill="#A2001D" points="68.564,152.23 50.033,118.611 68.564,85.518 87.093,118.611  "/>
	<polygon fill="#A2001D" points="31.502,152.23 12.972,118.611 31.502,85.518 50.033,118.611  "/>
</g>
</svg>
