<?xml version="1.0" encoding="UTF-8"?>

<svg xmlns="http://www.w3.org/2000/svg" viewBox="0 85.333 512 341.333">
<rect y="85.331" fill="#6DA544" width="512" height="341.337"/>
<g>
	<polygon fill="#FFDA44" points="347.323,330.198 352.006,339.99 362.582,337.546 357.846,347.313 366.35,354.058    355.762,356.443 355.791,367.299 347.323,360.508 338.855,367.299 338.884,356.443 328.296,354.058 336.8,347.313 332.064,337.546    342.639,339.99  "/>
	<polygon fill="#FFDA44" points="303.755,226.313 308.439,236.107 319.015,233.661 314.278,243.429 322.783,250.173    312.194,252.56 312.223,263.415 303.755,256.623 295.287,263.415 295.316,252.56 284.728,250.173 293.232,243.429 288.495,233.661    299.071,236.107  "/>
	<polygon fill="#FFDA44" points="347.323,166.951 352.006,176.743 362.582,174.298 357.847,184.067 366.35,190.811    355.762,193.198 355.791,204.052 347.323,197.261 338.855,204.052 338.884,193.198 328.296,190.811 336.8,184.067 332.064,174.298    342.639,176.743  "/>
	<polygon fill="#FFDA44" points="385.378,211.473 390.062,221.265 400.638,218.821 395.902,228.589 404.405,235.333    393.817,237.719 393.846,248.574 385.378,241.783 376.91,248.574 376.939,237.719 366.35,235.333 374.855,228.589 370.119,218.821    380.695,221.265  "/>
	<polygon fill="#FFDA44" points="358.166,263.415 361.85,274.753 373.771,274.753 364.127,281.759 367.811,293.095    358.166,286.089 348.523,293.095 352.207,281.759 342.562,274.753 354.483,274.753  "/>
	<path fill="#FFDA44" d="M274.551,304.226c-26.638,0-48.233-21.594-48.233-48.232s21.594-48.232,48.233-48.232   c8.306,0,16.12,2.1,22.943,5.797c-10.703-10.467-25.341-16.927-41.495-16.927c-32.784,0-59.362,26.577-59.362,59.362   s26.577,59.362,59.362,59.362c16.155,0,30.792-6.46,41.495-16.927C290.671,302.126,282.857,304.226,274.551,304.226z"/>
	<path fill="#FFDA44" d="M192.657,152.111c-5.133-8.87-14.717-14.84-25.7-14.84s-20.568,5.971-25.7,14.84H192.657z"/>
	<path fill="#FFDA44" d="M192.756,152.282l-25.799,25.799l-25.799-25.799c-2.465,4.328-3.882,9.331-3.882,14.669   c0,16.393,13.289,29.682,29.682,29.682s29.682-13.289,29.682-29.682C196.638,161.613,195.221,156.61,192.756,152.282z"/>
</g>
<path fill="#A2001D" d="M159.536,170.661v25.036c2.372,0.61,4.858,0.935,7.421,0.935s5.049-0.325,7.421-0.935v-25.036  H159.536z"/>
</svg>
