<?xml version="1.0" encoding="UTF-8"?>

<svg xmlns="http://www.w3.org/2000/svg" viewBox="0 85.333 512 341.333">
<rect y="85.333" fill="#D80027" width="512" height="341.337"/>
<g>
	<rect y="255.996" fill="#6DA544" width="211.478" height="85.337"/>
	<rect x="300.522" y="255.996" fill="#6DA544" width="211.478" height="85.337"/>
</g>
<polygon fill="#0052B4" points="0,85.33 0,85.333 0,170.662 211.478,170.662 211.478,85.333 300.522,85.333 300.522,170.662   512,170.662 512,85.333 512,85.33 "/>
<g>
	<rect x="300.522" y="170.659" fill="#FFFFFF" width="211.478" height="85.337"/>
	<rect y="170.659" fill="#FFFFFF" width="211.478" height="85.337"/>
</g>
<g>
	<polygon fill="#FFDA44" points="300.522,426.659 211.478,426.659 211.478,341.33 0,341.33 0,426.659 0,426.662 512,426.662    512,426.659 512,341.33 300.522,341.33  "/>
	<polygon fill="#FFDA44" points="119.678,111.3 124.282,125.472 139.184,125.472 127.13,134.231 131.734,148.402    119.678,139.644 107.624,148.402 112.229,134.231 100.174,125.472 115.074,125.472  "/>
</g>
</svg>
