<?xml version="1.0" encoding="UTF-8"?>

<svg xmlns="http://www.w3.org/2000/svg" viewBox="0 85.333 512 341.333">
<rect y="85.331" fill="#0052B4" width="512" height="341.337"/>
<rect y="322.777" fill="#D80027" width="512" height="22.261"/>
<g>
	<rect y="300.516" fill="#FFFFFF" width="512" height="22.261"/>
	<rect y="345.038" fill="#FFFFFF" width="512" height="22.261"/>
</g>
<g>
	<polygon fill="#FFDA44" points="180.384,261.272 183.388,270.521 193.113,270.521 185.246,276.236 188.251,285.484    180.384,279.769 172.517,285.484 175.522,276.236 167.656,270.521 177.38,270.521  "/>
	<polygon fill="#FFDA44" points="180.384,382.332 183.388,391.579 193.113,391.579 185.246,397.294 188.251,406.542    180.384,400.827 172.517,406.542 175.522,397.294 167.656,391.579 177.38,391.579  "/>
	<polygon fill="#FFDA44" points="124.033,341.389 127.037,350.638 136.762,350.638 128.896,356.353 131.9,365.601    124.033,359.886 116.166,365.601 119.171,356.353 111.304,350.638 121.029,350.638  "/>
	<polygon fill="#FFDA44" points="145.557,273.378 148.561,282.626 158.286,282.626 150.42,288.342 153.424,297.59    145.557,291.874 137.69,297.59 140.695,288.342 132.828,282.626 142.553,282.626  "/>
	<polygon fill="#FFDA44" points="111.304,311.462 121.027,311.463 124.032,302.214 127.037,311.462 136.762,311.461    128.895,317.177 131.9,326.427 124.032,320.711 116.166,326.424 119.17,317.177  "/>
	<polygon fill="#FFDA44" points="137.69,392.671 140.695,383.425 132.827,377.708 142.552,377.708 145.557,368.46    148.562,377.707 158.286,377.707 150.419,383.423 153.423,392.672 145.556,386.956  "/>
	<polygon fill="#FFDA44" points="236.714,341.389 233.71,350.638 223.986,350.638 231.851,356.353 228.847,365.601    236.714,359.886 244.581,365.601 241.576,356.353 249.443,350.638 239.718,350.638  "/>
	<polygon fill="#FFDA44" points="215.19,273.378 212.186,282.626 202.461,282.626 210.327,288.342 207.323,297.59    215.19,291.874 223.057,297.59 220.052,288.342 227.919,282.626 218.194,282.626  "/>
	<polygon fill="#FFDA44" points="249.443,311.462 239.721,311.463 236.715,302.214 233.71,311.462 223.986,311.461    231.853,317.177 228.847,326.427 236.715,320.711 244.581,326.424 241.577,317.177  "/>
	<polygon fill="#FFDA44" points="223.057,392.671 220.052,383.425 227.919,377.708 218.195,377.708 215.19,368.46    212.185,377.707 202.461,377.707 210.328,383.423 207.324,392.672 215.191,386.956  "/>
</g>
</svg>
