<?xml version="1.0" encoding="UTF-8"?>

<svg xmlns="http://www.w3.org/2000/svg" viewBox="0 85.333 512 341.333">
<rect y="85.333" fill="#0052B4" width="512" height="341.337"/>
<polyline fill="#6DA544" points="0,85.33 512,85.33 512,426.662 "/>
<circle fill="#FFDA44" cx="256" cy="255.996" r="44.522"/>
<g>
	<polygon fill="#FFFFFF" points="127.576,352.46 132.26,362.253 142.835,359.809 138.099,369.576 146.603,376.321    136.015,378.706 136.044,389.561 127.576,382.77 119.108,389.561 119.137,378.706 108.547,376.321 117.053,369.576    112.317,359.809 122.892,362.253  "/>
	<polygon fill="#FFFFFF" points="96.941,270.836 101.624,280.629 112.199,278.185 107.464,287.953 115.968,294.697    105.38,297.083 105.409,307.938 96.941,301.147 88.472,307.938 88.501,297.083 77.913,294.697 86.418,287.953 81.682,278.185    92.257,280.629  "/>
	<polygon fill="#FFFFFF" points="127.576,204.054 132.26,213.846 142.835,211.402 138.099,221.17 146.603,227.914    136.015,230.3 136.044,241.156 127.576,234.364 119.108,241.156 119.137,230.3 108.548,227.914 117.052,221.17 112.317,211.402    122.892,213.846  "/>
	<polygon fill="#FFFFFF" points="165.631,255.996 170.315,265.789 180.891,263.343 176.155,273.112 184.658,279.856    174.07,282.243 174.099,293.097 165.631,286.306 157.164,293.097 157.193,282.243 146.603,279.856 155.108,273.112    150.372,263.343 160.948,265.789  "/>
	<polygon fill="#FFFFFF" points="138.419,300.518 142.103,311.855 154.024,311.855 144.38,318.862 148.064,330.199    138.419,323.193 128.776,330.199 132.46,318.862 122.815,311.855 134.736,311.855  "/>
</g>
<path fill="#6DA544" d="M256,285.678h14.84c0,0,6.431-11.376,0-22.261l14.84-14.84l-7.42-14.841h-7.421  c0,0-3.71,11.13-18.551,11.13c-14.841,0-18.55-11.13-18.55-11.13h-7.42l7.42,14.84l-7.421,14.84l7.421,7.421  c0,0,7.421-14.84,22.261-7.421C256,263.417,262.308,272.692,256,285.678z"/>
<path fill="#FFDA44" d="M396.449,200.819c0.351-1.823,0.536-3.704,0.536-5.629c0-13.2-8.618-24.381-20.533-28.238  c3.641,7.4,5.693,15.723,5.693,24.527c0,2.97-0.239,5.882-0.688,8.726c-1.793-2.888-4.096-5.528-6.91-7.768  c-10.601-8.435-25.087-8.658-35.797-1.554c8.268,1.805,16.264,5.475,23.335,11.102c5.536,4.405,10.01,10.364,13.434,16.116  l-45.316,14.19c44.522,7.421,81.623-22.261,81.623-22.261C407.716,201.809,401.33,200.424,396.449,200.819z"/>
</svg>
