<?xml version="1.0" encoding="UTF-8"?>

<svg xmlns="http://www.w3.org/2000/svg" viewBox="0 85.333 512 341.333">
<rect y="85.337" fill="#496E2D" width="512" height="341.326"/>
<polygon points="0,224 0,245.334 0,266.666 0,288 512,288 512,266.666 512,245.334 512,224 "/>
<rect y="224" fill="#FFDA44" width="512" height="21.337"/>
<rect y="266.663" fill="#FFFFFF" width="512" height="21.337"/>
<rect x="224" y="85.337" width="64" height="341.326"/>
<rect x="224" y="85.337" fill="#FFDA44" width="21.326" height="341.326"/>
<rect x="266.674" y="85.337" fill="#FFFFFF" width="21.326" height="341.326"/>
<circle fill="#D80027" cx="256" cy="256" r="81.619"/>
<g>
	<path fill="#496E2D" d="M274.596,265.107c-6.071-12.142-13.963-24.449-13.963-24.449s0.196-5.603,0.196-8.942   c0-5.03-4.077-9.107-9.107-9.107c-4.765,0-8.668,3.661-9.067,8.321c-3.746,0.245-6.712,3.352-6.712,7.161   c0,2.769,1.569,5.168,3.864,6.368c1.141-2.669,3.376-4.753,6.141-5.703c0.45,0.37,0.935,0.698,1.451,0.977l1.166,0.559   c0,0-4.326,12.193-4.326,18.745c0,18.416,12.142,24.095,12.142,24.095v0.19l-6.071,6.069h12.142v-12.142l6.071,6.072   C268.58,283.206,280.026,275.967,274.596,265.107z"/>
	<polygon fill="#496E2D" points="256,189.217 258.763,197.72 267.703,197.72 260.47,202.976 263.234,211.478 256,206.224    248.766,211.478 251.53,202.976 244.297,197.72 253.237,197.72  "/>
	<polygon fill="#496E2D" points="216.746,201.972 223.978,207.226 231.211,201.972 228.449,210.474 235.682,215.729    226.743,215.73 223.979,224.233 221.216,215.73 212.276,215.729 219.509,210.474  "/>
	<polygon fill="#496E2D" points="192.486,235.363 201.425,235.363 204.188,226.861 206.952,235.363 215.891,235.363    208.659,240.618 211.423,249.121 204.188,243.867 196.955,249.12 199.718,240.618  "/>
	<polygon fill="#496E2D" points="192.486,276.637 199.718,271.383 196.955,262.88 204.188,268.134 211.421,262.879    208.659,271.382 215.893,276.637 206.952,276.638 204.188,285.139 201.425,276.637  "/>
	<polygon fill="#496E2D" points="216.746,310.028 219.509,301.527 212.275,296.271 221.216,296.271 223.979,287.767    226.743,296.27 235.682,296.27 228.449,301.526 231.211,310.028 223.978,304.774  "/>
	<polygon fill="#496E2D" points="256,322.783 253.237,314.281 244.297,314.281 251.53,309.025 248.766,300.522 256,305.776    263.233,300.522 260.47,309.025 267.703,314.28 258.763,314.281  "/>
	<polygon fill="#496E2D" points="295.254,310.028 288.022,304.774 280.789,310.029 283.551,301.526 276.317,296.271    285.257,296.27 288.02,287.767 290.784,296.271 299.724,296.271 292.491,301.527  "/>
	<polygon fill="#496E2D" points="319.514,276.637 310.575,276.637 307.812,285.139 305.048,276.638 296.107,276.638    303.341,271.382 300.577,262.88 307.812,268.134 315.044,262.88 312.282,271.382  "/>
	<polygon fill="#496E2D" points="319.514,235.363 312.282,240.618 315.045,249.12 307.812,243.866 300.578,249.121    303.341,240.618 296.107,235.364 305.048,235.363 307.811,226.861 310.575,235.363  "/>
	<polygon fill="#496E2D" points="295.254,201.972 292.491,210.474 299.724,215.729 290.784,215.729 288.022,224.233    285.257,215.73 276.317,215.73 283.551,210.474 280.789,201.973 288.022,207.226  "/>
</g>
</svg>
