<?xml version="1.0" encoding="iso-8859-1"?>
<!-- Generator: Adobe Illustrator 19.0.0, SVG Export Plug-In . SVG Version: 6.00 Build 0)  -->
<svg xmlns="http://www.w3.org/2000/svg" xmlns:xlink="http://www.w3.org/1999/xlink" version="1.1" id="Capa_1" x="0px" y="0px" viewBox="0 85.333 512 341.333" style="enable-background:new 0 0 512 512;" xml:space="preserve">
<rect y="85.337" style="fill:#FFFFFF;" width="512" height="341.326"/>
<rect y="300.522" style="fill:#D80027;" width="211.478" height="126.141"/>
<rect y="85.337" style="fill:#0052B4;" width="211.478" height="126.152"/>
<rect x="300.522" y="85.337" style="fill:#D80027;" width="211.478" height="126.152"/>
<rect x="300.522" y="300.522" style="fill:#0052B4;" width="211.478" height="126.141"/>
<path style="fill:#496E2D;" d="M300.521,256.006c0,24.588-19.932,44.521-44.521,44.521s-44.521-19.932-44.521-44.521  S256,211.485,256,211.485S300.521,231.417,300.521,256.006z"/>
<path style="fill:#0052B4;" d="M211.479,256.006c0-24.588,19.932-44.521,44.521-44.521s44.521,19.932,44.521,44.521"/>
<path style="fill:#D80027;" d="M230.957,233.745v27.825c0,13.831,11.212,25.042,25.043,25.042c13.832,0,25.043-11.212,25.043-25.042  v-27.825H230.957z"/>
<g>
</g>
<g>
</g>
<g>
</g>
<g>
</g>
<g>
</g>
<g>
</g>
<g>
</g>
<g>
</g>
<g>
</g>
<g>
</g>
<g>
</g>
<g>
</g>
<g>
</g>
<g>
</g>
<g>
</g>
</svg>
