<?xml version="1.0" encoding="UTF-8"?>

<svg xmlns="http://www.w3.org/2000/svg" viewBox="0 85.333 512 341.333">
<rect y="85.331" fill="#496E2D" width="512" height="341.326"/>
<rect x="256" y="85.331" fill="#FFFFFF" width="256" height="341.337"/>
<g>
	<polygon fill="#D80027" points="292.669,223.259 278.666,242.554 255.989,235.201 270.013,254.481 256.011,273.777    278.682,266.396 292.707,285.676 292.693,261.835 315.362,254.454 292.684,247.1  "/>
	<path fill="#D80027" d="M270.158,304.226c-26.637,0-48.232-21.594-48.232-48.232s21.594-48.232,48.232-48.232   c8.306,0,16.12,2.1,22.943,5.797c-10.704-10.467-25.342-16.927-41.494-16.927c-32.785,0-59.362,26.577-59.362,59.362   s26.577,59.362,59.362,59.362c16.152,0,30.79-6.461,41.494-16.927C286.278,302.127,278.463,304.226,270.158,304.226z"/>
</g>
</svg>
