<?xml version="1.0" encoding="UTF-8"?>

<svg xmlns="http://www.w3.org/2000/svg" viewBox="0 85.333 512 341.333">
<rect y="85.337" fill="#FFDA44" width="512" height="341.326"/>
<rect y="256" fill="#0052B4" width="512" height="85.337"/>
<rect y="341.337" fill="#D80027" width="512" height="85.326"/>
<circle fill="#FFDA44" cx="256" cy="256" r="59.359"/>
<path fill="#338AF3" d="M256,295.304c-21.098,0-38.261-17.163-38.261-38.261v-22.957c0-21.098,17.163-38.261,38.261-38.261  s38.261,17.163,38.261,38.261v22.957C294.261,278.141,277.098,295.304,256,295.304z"/>
<path d="M317.217,165.217h-45.913c0-8.451-6.853-15.304-15.304-15.304s-15.304,6.853-15.304,15.304h-45.913  c0,8.452,7.363,15.304,15.814,15.304h-0.51c0,8.452,6.852,15.304,15.304,15.304c0,8.452,6.852,15.304,15.304,15.304h30.609  c8.452,0,15.304-6.852,15.304-15.304c8.452,0,15.304-6.852,15.304-15.304h-0.51C309.855,180.521,317.217,173.669,317.217,165.217z"/>
</svg>
