<?xml version="1.0" encoding="iso-8859-1"?>
<!-- Generator: Adobe Illustrator 19.0.0, SVG Export Plug-In . SVG Version: 6.00 Build 0)  -->
<svg xmlns="http://www.w3.org/2000/svg" xmlns:xlink="http://www.w3.org/1999/xlink" version="1.1" id="Capa_1" x="0px" y="0px" viewBox="0 85.333 512 341.333" style="enable-background:new 0 0 512 512;" xml:space="preserve">
<rect y="85.337" style="fill:#338AF3;" width="512" height="341.326"/>
<rect y="85.337" style="fill:#6DA544;" width="512" height="170.663"/>
<path style="fill:#D80027;" d="M0,426.663c-0.004,0.027,512-170.669,512-170.669L0,85.337V426.663z"/>
<path style="fill:#FFDA44;" d="M140.986,191.994c-29.718,0-53.895,24.176-53.895,53.895V266.1c0,29.718,24.178,53.895,53.895,53.895  s53.895-24.176,53.895-53.895v-20.211C194.881,216.172,170.703,191.994,140.986,191.994z M174.67,266.1  c0,15.054-9.927,27.831-23.579,32.134v-22.028l14.299-14.298l-14.29-14.29l-0.008-5.087v-6.745h-20.211v20.211l-14.288,14.288  l14.288,14.288v13.663c-13.651-4.303-23.579-17.08-23.579-32.134V245.89c0-18.573,15.111-33.684,33.684-33.684  s33.684,15.111,33.684,33.684v20.21H174.67z"/>
<g>
</g>
<g>
</g>
<g>
</g>
<g>
</g>
<g>
</g>
<g>
</g>
<g>
</g>
<g>
</g>
<g>
</g>
<g>
</g>
<g>
</g>
<g>
</g>
<g>
</g>
<g>
</g>
<g>
</g>
</svg>
