<?xml version="1.0" encoding="UTF-8"?>

<svg xmlns="http://www.w3.org/2000/svg" viewBox="0 85.333 512 341.333">
<rect y="85.337" fill="#FFDA44" width="512" height="341.326"/>
<rect y="85.337" fill="#6DA544" width="512" height="113.775"/>
<rect y="312.888" fill="#D80027" width="512" height="113.775"/>
<circle fill="#0052B4" cx="256" cy="256" r="81.619"/>
<g>
	<polygon fill="#FFDA44" points="255.982,192.796 270.717,238.142 318.474,238.142 279.824,266.17 294.673,311.651    255.982,283.491 217.352,311.599 232.142,266.17 193.526,238.142 241.248,238.142  "/>
	<polygon fill="#FFDA44" points="314.748,267.286 268.005,252.098 296.893,212.339 284.888,203.615 255.999,243.376    227.112,203.616 215.106,212.338 243.992,252.1 197.252,267.286 201.837,281.401 248.579,266.213 248.579,315.361 263.421,315.361    263.421,266.213 310.161,281.401  "/>
</g>
</svg>
