<?xml version="1.0" encoding="UTF-8"?>

<svg xmlns="http://www.w3.org/2000/svg" viewBox="0 85.333 512 341.333">
<rect y="85.334" fill="#2E52B2" width="512" height="341.337"/>
<polygon fill="#FFFFFF" points="256,85.334 256,107.951 209.931,138.66 256,138.66 256,202.66 209.931,202.66 256,233.38   256,255.997 233.372,255.997 160,207.078 160,255.997 96,255.997 96,207.078 22.628,255.997 0,255.997 0,233.38 46.069,202.66   0,202.66 0,138.66 46.069,138.66 0,107.951 0,85.334 22.628,85.334 96,134.241 96,85.334 160,85.334 160,134.241 233.372,85.334 "/>
<g>
	<polygon fill="#D80027" points="144,85.329 112,85.329 112,154.663 0,154.663 0,186.663 112,186.663 112,255.997    144,255.997 144,186.663 256,186.663 256,154.663 144,154.663  "/>
	<polygon fill="#D80027" points="0,85.329 0,100.412 57.377,138.663 80,138.663  "/>
	<polygon fill="#D80027" points="256,85.329 256,100.412 198.623,138.663 176,138.663  "/>
	<polygon fill="#D80027" points="0,85.329 0,100.412 57.377,138.663 80,138.663  "/>
	<polygon fill="#D80027" points="256,85.329 256,100.412 198.623,138.663 176,138.663  "/>
	<polygon fill="#D80027" points="0,255.997 0,240.915 57.377,202.663 80,202.663  "/>
	<polygon fill="#D80027" points="256,255.997 256,240.915 198.623,202.663 176,202.663  "/>
</g>
<path fill="#F3F3F3" d="M332.058,207.765v59.362c0,39.76,51.942,51.942,51.942,51.942s51.942-12.182,51.942-51.942v-59.362  L384,192.924L332.058,207.765z"/>
<path fill="#D80027" d="M435.942,211.475v-22.261H332.059v22.261h44.521v44.523h-44.521v14.839v0.001h44.521v49.664  c4.479,1.586,7.421,2.277,7.421,2.277s2.942-0.691,7.42-2.276v-49.665h44.523v-0.001v-14.839H391.42v-44.523H435.942z"/>
</svg>
