<?xml version="1.0" encoding="UTF-8"?>

<svg xmlns="http://www.w3.org/2000/svg" viewBox="0 85.333 512 341.333">
<rect y="85.333" fill="#0052B4" width="512" height="341.337"/>
<polygon fill="#FFDA44" points="413.681,293.097 413.681,300.518 354.318,300.518 354.318,293.097 332.058,293.097   332.058,322.779 346.899,322.779 346.899,330.198 421.101,330.198 421.101,322.779 435.942,322.779 435.942,293.097 "/>
<path fill="#338AF3" d="M332.058,181.793v81.623c0,39.759,51.942,51.942,51.942,51.942s51.942-12.182,51.942-51.942v-81.623  L332.058,181.793L332.058,181.793z"/>
<g>
	<path fill="#F3F3F3" d="M383.997,242.675c-12.985,0-12.985,11.873-25.97,11.873s-12.985-11.873-25.97-11.873v20.777   c12.985,0,12.985,11.873,25.97,11.873s12.985-11.873,25.97-11.873c12.986,0,12.986,11.873,25.973,11.873   c12.986,0,12.986-11.873,25.973-11.873v-20.777c-12.986,0-12.986,11.873-25.973,11.873   C396.984,254.548,396.984,242.675,383.997,242.675z"/>
	<path fill="#F3F3F3" d="M383.997,201.085c-12.985,0-12.985,11.873-25.97,11.873s-12.985-11.873-25.97-11.873v20.777   c12.985,0,12.985,11.873,25.97,11.873s12.985-11.873,25.97-11.873c12.986,0,12.986,11.873,25.973,11.873   c12.986,0,12.986-11.873,25.973-11.873v-20.777c-12.986,0-12.986,11.873-25.973,11.873   C396.984,212.958,396.984,201.085,383.997,201.085z"/>
</g>
<polygon fill="#FFFFFF" points="256,85.333 256,115.886 210.833,140.985 256,140.985 256,200.344 196.897,200.344   256,233.179 256,255.996 229.32,255.996 155.826,215.169 155.826,255.996 100.174,255.996 100.174,207.423 12.744,255.996   0,255.996 0,225.442 45.167,200.344 0,200.344 0,140.985 59.103,140.985 0,108.139 0,85.333 26.68,85.333 100.174,126.16   100.174,85.333 155.826,85.333 155.826,133.906 243.256,85.333 "/>
<polygon fill="#D80027" points="144,85.33 112,85.33 112,154.662 0,154.662 0,186.662 112,186.662 112,255.996 144,255.996   144,186.662 256,186.662 256,154.662 144,154.662 "/>
<polygon fill="#0052B4" points="155.826,200.344 256,255.996 256,240.259 184.153,200.344 "/>
<polygon fill="#FFFFFF" points="155.826,200.344 256,255.996 256,240.259 184.153,200.344 "/>
<g>
	<polygon fill="#D80027" points="155.826,200.344 256,255.996 256,240.259 184.153,200.344  "/>
	<polygon fill="#D80027" points="71.846,200.344 0,240.259 0,255.996 0,255.996 100.174,200.344  "/>
</g>
<polygon fill="#0052B4" points="100.174,140.982 0,85.33 0,101.067 71.847,140.982 "/>
<polygon fill="#FFFFFF" points="100.174,140.982 0,85.33 0,101.067 71.847,140.982 "/>
<g>
	<polygon fill="#D80027" points="100.174,140.982 0,85.33 0,101.067 71.847,140.982  "/>
	<polygon fill="#D80027" points="184.154,140.982 256,101.067 256,85.33 256,85.33 155.826,140.982  "/>
</g>
</svg>
