<?xml version="1.0" encoding="UTF-8"?>

<svg xmlns="http://www.w3.org/2000/svg" viewBox="0 85.333 512 341.333">
<rect y="85.333" fill="#FFFFFF" width="512" height="341.337"/>
<g>
	<polygon fill="#D80027" points="288,85.33 224,85.33 224,223.996 0,223.996 0,287.996 224,287.996 224,426.662 288,426.662    288,287.996 512,287.996 512,223.996 288,223.996  "/>
	<polygon fill="#D80027" points="123.13,143.534 123.13,121.273 100.87,121.273 100.87,143.534 78.609,143.534    78.609,165.795 100.87,165.795 100.87,188.056 123.13,188.056 123.13,165.795 145.391,165.795 145.391,143.534  "/>
	<polygon fill="#D80027" points="411.13,143.534 411.13,121.273 388.87,121.273 388.87,143.534 366.609,143.534    366.609,165.795 388.87,165.795 388.87,188.056 411.13,188.056 411.13,165.795 433.391,165.795 433.391,143.534  "/>
	<polygon fill="#D80027" points="123.13,346.197 123.13,323.936 100.87,323.936 100.87,346.197 78.609,346.197    78.609,368.458 100.87,368.458 100.87,390.719 123.13,390.719 123.13,368.458 145.391,368.458 145.391,346.197  "/>
	<polygon fill="#D80027" points="411.13,346.197 411.13,323.936 388.87,323.936 388.87,346.197 366.609,346.197    366.609,368.458 388.87,368.458 388.87,390.719 411.13,390.719 411.13,368.458 433.391,368.458 433.391,346.197  "/>
</g>
</svg>
