<?xml version="1.0" encoding="UTF-8"?>

<svg xmlns="http://www.w3.org/2000/svg" viewBox="0 85.333 512 341.333">
<rect y="85.333" fill="#FFFFFF" width="512" height="341.337"/>
<polygon fill="#D80027" points="288,85.33 224,85.33 224,223.996 0,223.996 0,287.996 224,287.996 224,426.662 288,426.662   288,287.996 512,287.996 512,223.996 288,223.996 "/>
<polygon fill="#FFDA44" points="319.304,265.735 333.913,275.474 333.913,236.518 319.304,246.257 265.739,246.257   265.739,192.692 275.478,178.083 236.522,178.083 246.261,192.692 246.261,246.257 192.696,246.257 178.087,236.518   178.087,275.474 192.696,265.735 246.261,265.735 246.261,319.3 236.522,333.909 275.478,333.909 265.739,319.3 265.739,265.735 "/>
</svg>
