<?xml version="1.0" encoding="UTF-8"?>

<svg xmlns="http://www.w3.org/2000/svg" viewBox="0 85.333 512 341.333">
<rect y="85.331" fill="#FFFFFF" width="512" height="341.337"/>
<g>
	<rect y="312.882" fill="#D80027" width="512" height="113.775"/>
	<polygon fill="#D80027" points="322.783,226.313 322.783,204.052 330.203,204.052 330.203,189.212 315.362,189.212    315.362,196.631 300.522,196.631 300.522,189.212 285.682,189.212 285.682,204.052 293.101,204.052 293.101,226.313    278.261,226.313 278.261,174.373 285.682,174.373 285.682,159.531 270.84,159.531 270.84,166.951 263.421,166.951 263.421,159.531    248.579,159.531 248.579,166.951 241.16,166.951 241.16,159.531 226.318,159.531 226.318,174.373 233.739,174.373 233.739,226.313    218.899,226.313 218.899,204.052 226.318,204.052 226.318,189.212 211.478,189.212 211.478,196.631 196.638,196.631    196.638,189.212 181.797,189.212 181.797,204.052 189.217,204.052 189.217,226.313 174.377,226.313 174.377,285.675    337.623,285.675 337.623,226.313  "/>
</g>
<path fill="#FFDA44" d="M256,278.255c-12.295,0-22.261,9.966-22.261,22.261c0,9.691,6.195,17.933,14.84,20.989v30.953  h-22.261v29.682h37.101v-60.634c8.646-3.055,14.841-11.297,14.841-20.989C278.261,288.221,268.295,278.255,256,278.255z   M256,307.936c-4.098,0-7.421-3.322-7.421-7.421s3.321-7.421,7.421-7.421c4.098,0,7.421,3.321,7.421,7.421  C263.421,304.613,260.098,307.936,256,307.936z"/>
</svg>
