<?xml version="1.0" encoding="iso-8859-1"?>
<!-- Generator: Adobe Illustrator 19.0.0, SVG Export Plug-In . SVG Version: 6.00 Build 0)  -->
<svg xmlns="http://www.w3.org/2000/svg" xmlns:xlink="http://www.w3.org/1999/xlink" version="1.1" id="Capa_1" x="0px" y="0px" viewBox="0 85.333 512 341.333" style="enable-background:new 0 0 512 512;" xml:space="preserve">
<rect y="85.337" style="fill:#FFFFFF;" width="512" height="341.326"/>
<rect y="85.337" style="fill:#6DA544;" width="512" height="113.775"/>
<rect y="312.888" style="fill:#D80027;" width="512" height="113.775"/>
<polygon style="fill:#0052B4;" points="256,256.006 0,426.668 0,85.331 "/>
<path style="fill:#DEDDE0;" d="M279.807,219.71v44.444c0,27.216,35.555,35.556,35.555,35.556s35.555-8.339,35.555-35.556V219.71  H279.807z"/>
<rect x="306.477" y="256.156" style="fill:#786145;" width="17.778" height="25.778"/>
<path style="fill:#6DA544;" d="M333.141,246.377c0-9.818-7.959-17.778-17.778-17.778s-17.778,7.959-17.778,17.778  c-4.91,0-8.889,3.979-8.889,8.889s3.979,8.889,8.889,8.889c2.915,0,32.64,0,35.555,0c4.91,0,8.889-3.979,8.889-8.889  S338.05,246.377,333.141,246.377z"/>
<g>
</g>
<g>
</g>
<g>
</g>
<g>
</g>
<g>
</g>
<g>
</g>
<g>
</g>
<g>
</g>
<g>
</g>
<g>
</g>
<g>
</g>
<g>
</g>
<g>
</g>
<g>
</g>
<g>
</g>
</svg>
