<svg version="1.1" xmlns="http://www.w3.org/2000/svg" x="0" y="0" viewBox="0 0 640 426.7" xml:space="preserve"><path fill="#006" d="M0 0h640v480H0V0z"/><path fill="#FFF" d="M0 0v33l403 262h51v-33L51 0H0zm454 0v33L51 295H0v-33L403 0h51z"/><path fill="#FFF" d="M189 0v295h76V0h-76zM0 98v99h454V98H0z"/><path fill="#C00" d="M0 118v59h454v-59H0zM204 0v295h46V0h-46zM0 295l151-99h34L34 296H0zM0 0l151 98h-33L0 22V0zm269 98L420 0h34L303 98h-34zm185 197l-151-99h33l118 77v22z"/><path fill="#656263" d="M556 199c1-1 6-3 5-9-1-7-6-8-10-8l-6 3-11-6s6-34 11-36c6-4 7-6 7-7l-2-3-35-4-33 4s-3 4-2 5 0 4 6 8c7 5 11 34 11 34l-10 4-4-1c-2 0-7 3-7 9 0 7 5 10 5 10s32-3 36 5c5-10 35-6 39-8z"/><path fill="#006B00" d="M480 202l39 104 36-106c-11 0-35-2-38 8-4-9-29-5-37-6z"/><path fill="#FB0" d="M579 409s-9-18-13-18c-4-7 13-66 46-70 18 2 1 21-11 15l8 13s-24 10-31 60zm-113 2s7-20 11-20-11-67-45-68c-18 2-1 21 11 15-2 6-8 13-8 13s24 10 31 60z"/><path fill="#FB0" d="M418 384s14 9 14 14c36-54 128-70 180-4 7-9 14-12 14-12-55-72-165-63-208 2z"/></svg>