<?xml version="1.0" encoding="utf-8"?>
<svg version="1.1" xmlns="http://www.w3.org/2000/svg" xmlns:xlink="http://www.w3.org/1999/xlink"
	 viewBox="0 0 512 341.3" xml:space="preserve">

<rect fill="#0052B4" width="512" height="341.3"/>
<polygon fill="#FFFFFF" points="256,0 256,117.4 209.9,117.4 256,148.1 256,170.7 233.4,170.7 160,121.8 160,170.7 96,170.7 96,121.8
	22.6,170.7 0,170.7 0,148.1 46.1,117.4 0,117.4 0,53.4 46.1,53.4 0,22.7 0,0 22.6,0 96,48.9 96,0 160,0 160,48.9 233.4,0 "/>
<g>
	<polygon fill="#D80027" points="144,0 112,0 112,69.4 0,69.4 0,101.4 112,101.4 112,170.7 144,170.7 144,101.4 256,101.4 256,69.4
		144,69.4 	"/>
	<polygon fill="#D80027" points="0,0 0,15.1 57.4,53.4 80,53.4 	"/>
	<polygon fill="#D80027" points="256,0 256,15.1 198.6,53.4 176,53.4 	"/>
</g>
<polygon fill="#2E52B2" points="256,22.7 256,53.4 209.9,53.4 "/>
<g>
	<polygon fill="#D80027" points="0,0 0,15.1 57.4,53.4 80,53.4 	"/>
	<polygon fill="#D80027" points="256,0 256,15.1 198.6,53.4 176,53.4 	"/>
</g>
<polygon fill="#2E52B2" points="256,22.7 256,53.4 209.9,53.4 "/>
<g>
	<polygon fill="#D80027" points="0,170.7 0,155.6 57.4,117.4 80,117.4 	"/>
	<polygon fill="#D80027" points="256,170.7 256,155.6 198.6,117.4 176,117.4 	"/>
</g>
<path fill="#B2B2B2" d="M414,119.7c1-1,6-3,5-9c-1-7-6-8-10-8l-6,3l-11-6c0,0,6-34,11-36c6-4,7-6,7-7l-2-3l-35-4l-33,4c0,0-3,4-2,5
	s0,4,6,8c7,5,11,34,11,34l-10,4l-4-1c-2,0-7,3-7,9c0,7,5,10,5,10s32-3,36,5C380,117.7,410,121.7,414,119.7z"/>
<path fill="#00BC00" d="M338,122.7l39,104l36-106c-11,0-35-2-38,8C371,119.7,346,123.7,338,122.7z"/>
<path fill="#FFD400" d="M432.5,324.7c0,0-9-18-13-18c-4-7,13-66,46-70c18,2,1,21-11,15l8,13c0,0-24,10-31,60H432.5z M319.5,326.7
	c0,0,7-20,11-20s-11-67-45-68c-18,2-1,21,11,15c-2,6-8,13-8,13S312.5,276.7,319.5,326.7z"/>
<path fill="#FFD400" d="M271.5,299.7c0,0,14,9,14,14c36-54,128-70,180-4c7-9,14-12,14-12C424.5,225.7,314.5,234.7,271.5,299.7z"/>
</svg>
