<?xml version="1.0" encoding="UTF-8"?>

<svg xmlns="http://www.w3.org/2000/svg" viewBox="0 85.333 512 341.333">
<rect y="85.331" fill="#FFFFFF" width="512" height="341.337"/>
<g>
	<rect y="85.331" fill="#338AF3" width="170.663" height="341.337"/>
	<rect x="341.337" y="85.331" fill="#338AF3" width="170.663" height="341.337"/>
</g>
<polygon fill="#ACABB1" points="304.083,286.736 272.971,255.624 302.586,226.008 301.244,210.366 292.766,201.886   256,238.652 219.234,201.886 210.756,210.366 209.414,226.008 239.029,255.624 207.917,286.736 224.887,303.706 256,272.594   287.113,303.706 "/>
<path fill="#6DA544" d="M301.255,210.367l-16.971,16.971c7.238,7.239,11.716,17.239,11.716,28.285  c0,22.092-17.909,40.001-40.001,40.001s-40.001-17.909-40.001-40.001c0-11.045,4.478-21.045,11.716-28.285l-16.971-16.971  C199.162,221.949,192,237.949,192,255.623c0,35.346,28.654,64,64,64s64-28.654,64-64C320,237.949,312.836,221.949,301.255,210.367z"/>
</svg>
