<?xml version="1.0" encoding="UTF-8"?>

<svg xmlns="http://www.w3.org/2000/svg" viewBox="0 85.333 512 341.333">
<rect y="85.331" fill="#D80027" width="512" height="341.337"/>
<rect x="11.13" y="96.462" fill="#0052B4" width="489.739" height="319.076"/>
<path fill="#D80027" d="M246.342,363.726c-2.333-1.999-57.125-49.632-57.125-107.731s54.792-105.732,57.125-107.731  l9.658-8.279l9.658,8.279c2.333,1.999,57.125,49.632,57.125,107.731s-54.792,105.732-57.125,107.731L256,372.005L246.342,363.726z"/>
<path fill="#338AF3" d="M307.942,255.994c0-51.942-51.942-96.464-51.942-96.464s-51.942,44.524-51.942,96.464  c0,15.89,4.865,31.083,11.613,44.522h80.658C303.077,287.077,307.942,271.884,307.942,255.994z"/>
<path fill="#0052B4" d="M307.942,255.994c0,15.89-4.865,31.083-11.613,44.522L256,307.937l-40.329-7.421  c-6.748-13.439-11.613-28.632-11.613-44.522H307.942z"/>
<path fill="#FFDA44" d="M256,352.459c0,0,25.019-21.452,40.329-51.942h-80.658C230.981,331.007,256,352.459,256,352.459z"/>
<polygon fill="#6DA544" points="222.609,226.313 289.391,226.313 256,259.704 "/>
<rect x="244.87" y="248.57" fill="#A2001D" width="22.261" height="66.783"/>
</svg>
