<?xml version="1.0" encoding="UTF-8"?>

<svg xmlns="http://www.w3.org/2000/svg" viewBox="0 85.333 512 341.333">
<rect y="85.331" fill="#D80027" width="512" height="341.337"/>
<g>
	<path fill="#FFFFFF" d="M273.621,214.44c-3.878,16.132-10.77,13.056-14.152,27.125   c-19.921-4.789-32.191-24.823-27.401-44.747c4.788-19.921,24.823-32.191,44.745-27.402   C270.048,197.555,277.09,200.011,273.621,214.44z"/>
	<path fill="#FFFFFF" d="M221.924,226.394c14.145,8.674,9.088,14.278,21.423,21.842   c-10.712,17.467-33.555,22.944-51.023,12.232c-17.467-10.711-22.945-33.556-12.233-51.023   C204.762,224.574,209.272,218.636,221.924,226.394z"/>
	<path fill="#FFFFFF" d="M217.318,279.255c12.621-10.772,16.387-4.232,27.393-13.626   c13.303,15.585,11.452,39.003-4.132,52.306c-15.586,13.303-39.004,11.451-52.306-4.133   C210.284,295.016,206.03,288.89,217.318,279.255z"/>
	<path fill="#FFFFFF" d="M266.17,299.971c-6.347-15.331,1.037-16.894-4.494-30.263c18.933-7.835,40.634,1.161,48.471,20.094   c7.835,18.933-1.162,40.634-20.095,48.47C278.984,311.532,271.845,313.685,266.17,299.971z"/>
	<path fill="#FFFFFF" d="M300.967,259.912c-16.542,1.298-15.747-6.209-30.171-5.077c-1.602-20.427,13.66-38.286,34.088-39.89   c20.427-1.599,38.286,13.663,39.888,34.09C315.921,251.297,315.76,258.753,300.967,259.912z"/>
</g>
</svg>
