<?xml version="1.0" encoding="UTF-8"?>

<svg xmlns="http://www.w3.org/2000/svg" viewBox="0 85.333 512 341.333">
<rect y="85.337" fill="#FFFFFF" width="512" height="341.326"/>
<g>
	<rect y="85.337" fill="#338AF3" width="512" height="113.775"/>
	<rect y="312.888" fill="#338AF3" width="512" height="113.775"/>
	<polygon fill="#338AF3" points="203.491,208.511 207.912,222.116 222.217,222.116 210.643,230.524 215.064,244.128    203.491,235.72 191.919,244.128 196.34,230.524 184.766,222.116 199.071,222.116  "/>
	<polygon fill="#338AF3" points="203.491,267.872 207.912,281.478 222.217,281.478 210.643,289.884 215.064,303.489    203.491,295.081 191.919,303.489 196.34,289.884 184.766,281.478 199.071,281.478  "/>
	<polygon fill="#338AF3" points="308.509,208.511 312.929,222.116 327.234,222.116 315.66,230.524 320.081,244.128    308.509,235.72 296.936,244.128 301.357,230.524 289.783,222.116 304.088,222.116  "/>
	<polygon fill="#338AF3" points="308.509,267.872 312.929,281.478 327.234,281.478 315.66,289.884 320.081,303.489    308.509,295.081 296.936,303.489 301.357,289.884 289.783,281.478 304.088,281.478  "/>
	<polygon fill="#338AF3" points="256,238.191 260.421,251.796 274.725,251.796 263.152,260.204 267.573,273.809 256,265.401    244.427,273.809 248.848,260.204 237.275,251.796 251.579,251.796  "/>
</g>
</svg>
