<?xml version="1.0" encoding="UTF-8"?>

<svg xmlns="http://www.w3.org/2000/svg" viewBox="0 85.333 512 341.333">
<rect y="85.331" fill="#FFFFFF" width="512" height="341.337"/>
<g>
	<path fill="#2E52B2" d="M320,219.045h-42.667L256,182.094l-21.333,36.95H192l21.335,36.951L192,292.944h42.667L256,329.895   l21.333-36.95H320l-21.335-36.951L320,219.045z M282.209,255.994l-13.104,22.699h-26.209l-13.105-22.699l13.105-22.699h26.209   L282.209,255.994z M256,210.597l4.877,8.448h-9.754L256,210.597z M216.685,233.295h9.755l-4.877,8.448L216.685,233.295z    M216.685,278.694l4.877-8.448l4.877,8.448H216.685z M256,301.392l-4.876-8.448h9.754L256,301.392z M295.315,278.694h-9.755   l4.877-8.448L295.315,278.694z M285.56,233.295h9.755l-4.877,8.448L285.56,233.295z"/>
	<rect y="106.657" fill="#2E52B2" width="512" height="42.663"/>
	<rect y="362.657" fill="#2E52B2" width="512" height="42.663"/>
</g>
</svg>
