<svg xmlns="http://www.w3.org/2000/svg" viewBox="0 85.333 512 341.333"><path fill="#f0f0f0" d="M0 85h512v342H0z"/><g fill="#0052b4"><path d="M462 283c-4 0-14-5-21-9-11-6-21-12-31-12s-20 6-31 12c-7 4-16 9-20 9s-14-5-20-9c-11-6-22-12-32-12-9 0-20 6-31 12-7 4-16 9-20 9s-13-5-20-9c-11-6-22-12-31-12-10 0-21 6-32 12-6 4-16 9-20 9s-13-5-20-9c-11-6-21-12-31-12s-20 6-31 12c-7 4-17 9-21 9s-13-5-20-9c-10-6-20-12-30-12v22l19 10c11 6 21 12 31 12s21-6 32-12c6-4 16-10 20-10s13 6 20 10c11 6 21 12 31 12s20-6 31-12c7-4 17-10 21-10s13 6 20 10c11 6 21 12 31 12s20-6 31-12c7-4 16-10 20-10s14 6 21 10c11 6 21 12 31 12s20-6 31-12c7-4 16-10 20-10s14 6 20 10c11 6 22 12 32 12s20-6 31-12l19-10v-22c-10 0-20 6-30 12-7 4-16 9-20 9zM0 117l19 10c11 6 21 12 31 12s21-6 32-12c6-4 16-10 20-10s13 6 20 10c11 6 21 12 31 12s20-6 31-12c7-4 17-10 21-10s13 6 20 10c11 6 21 12 31 12s20-6 31-12c7-4 16-10 20-10s14 6 21 10c11 6 21 12 31 12s20-6 31-12c7-4 16-10 20-10s14 6 20 10c11 6 22 12 32 12s20-6 31-12l19-10V95c-10 1-20 6-30 12-7 4-16 9-20 9s-14-5-21-9c-11-6-21-12-31-12s-20 6-31 12c-7 4-16 9-20 9s-14-5-20-9c-11-6-22-12-32-12s-20 6-31 12c-7 4-16 9-20 9s-13-5-20-9c-11-6-22-12-31-12s-21 6-32 12c-6 4-16 9-20 9s-13-5-20-9c-11-6-21-12-31-12s-20 6-31 12c-7 4-17 9-21 9s-13-5-20-9c-10-6-20-11-30-12v22zM462 172c-4 0-14-5-21-9-11-6-21-12-31-12s-20 6-31 12c-7 4-16 9-20 9s-14-5-20-9c-11-6-22-12-32-12-9 0-20 6-31 12-7 4-16 9-20 9s-13-5-20-9c-11-6-22-12-31-12-10 0-21 6-32 12-6 4-16 9-20 9s-13-5-20-9c-11-6-21-12-31-12s-20 6-31 12c-7 4-17 9-21 9s-13-5-20-9c-10-6-20-12-30-12v22l19 9c11 6 21 12 31 12s21-6 32-12c6-4 16-9 20-9s13 5 20 9c11 6 21 12 31 12s20-6 31-12c7-4 17-9 21-9s13 5 20 9c11 6 21 12 31 12s20-6 31-12c7-4 16-9 20-9s14 5 21 9c11 6 21 12 31 12s20-6 31-12c7-4 16-9 20-9s14 5 20 9c11 6 22 12 32 12s20-6 31-12l19-9v-22c-10 0-20 6-30 12-7 4-16 9-20 9zM512 206c-10 1-20 6-30 12-7 4-16 10-20 10s-14-6-21-10c-11-6-21-12-31-12s-20 6-31 12c-7 4-16 10-20 10s-14-6-20-10c-11-6-22-12-32-12s-20 6-31 12c-7 4-16 10-20 10s-13-6-20-10c-11-6-22-12-31-12s-21 6-32 12c-6 4-16 10-20 10s-13-6-20-10c-11-6-21-12-31-12s-20 6-31 12c-7 4-17 10-21 10s-13-6-20-10c-10-6-20-11-30-12v23c4 1 13 5 19 9 11 6 21 12 31 12s21-6 32-12c6-4 16-9 20-9s13 5 20 9c11 6 21 12 31 12s20-6 31-12c7-4 17-9 21-9s13 5 20 9c11 6 21 12 31 12s20-6 31-12c7-4 16-9 20-9s14 5 21 9c11 6 21 12 31 12s20-6 31-12c7-4 16-9 20-9s14 5 20 9c11 6 22 12 32 12s20-6 31-12c6-4 15-8 19-9v-23zM462 339c-4 0-14-5-21-9-11-6-21-12-31-12s-20 6-31 12c-7 4-16 9-20 9s-14-5-20-9c-11-6-22-12-32-12-9 0-20 6-31 12-7 4-16 9-20 9s-13-5-20-9c-11-6-22-12-31-12-10 0-21 6-32 12-6 4-16 9-20 9s-13-5-20-9c-11-6-21-12-31-12s-20 6-31 12c-7 4-17 9-21 9s-13-5-20-9c-10-6-20-12-30-12v22l19 9c11 6 21 12 31 12s21-6 32-12c6-4 16-9 20-9s13 5 20 9c11 6 21 12 31 12s20-6 31-12c7-4 17-9 21-9s13 5 20 9c11 6 21 12 31 12s20-6 31-12c7-4 16-9 20-9s14 5 21 9c11 6 21 12 31 12s20-6 31-12c7-4 16-9 20-9s14 5 20 9c11 6 22 12 32 12s20-6 31-12l19-9v-22c-10 0-20 6-30 12-7 4-16 9-20 9zM512 373c-10 1-20 6-30 12-7 4-16 10-20 10s-14-6-21-10c-11-6-21-12-31-12s-20 6-31 12c-7 4-16 10-20 10s-14-6-20-10c-11-6-22-12-32-12s-20 6-31 12c-7 4-16 10-20 10s-13-6-20-10c-11-6-22-12-31-12s-21 6-32 12c-6 4-16 10-20 10s-13-6-20-10c-11-6-21-12-31-12s-20 6-31 12c-7 4-17 10-21 10s-13-6-20-10c-10-6-20-11-30-12v23c4 0 13 5 19 9 11 6 21 12 31 12s21-6 32-12c6-4 16-9 20-9s13 5 20 9c11 6 21 12 31 12s20-6 31-12c7-4 17-9 21-9s13 5 20 9c11 6 21 12 31 12s20-6 31-12c7-4 16-9 20-9s14 5 21 9c11 6 21 12 31 12s20-6 31-12c7-4 16-9 20-9s14 5 20 9c11 6 22 12 32 12s20-6 31-12c6-4 15-9 19-9v-23z"/></g><g fill="#f0f0f0"><path d="M256 85zM256 256z"/></g><path fill="#496e2d" d="M278 256z"/><path fill="#6da544" d="M351 169h66l-33 33z"/><g fill="#a2001d"><path d="M377 195h14v41h-14zM377 302h14v41h-14z"/></g><path d="M429 280a22 22 0 00-38-16v-14h8v-14h-8v-8h-14v8h-8v14h8v14c-4-4-10-6-15-6a22 22 0 00-15 39v13h74v-13c5-4 8-10 8-17z" fill="#ffda44"/><path d="M406 273l-5 2-10 8h-14l-10-8-5-2a7 7 0 00-5 13l5 4v5h44v-5l5-4c1-1 3-3 3-6 0-4-4-7-8-7z" fill="#d80027"/><path fill="#f0f0f0" d="M0 85h256v171H0z"/><g fill="#d80027"><path d="M144 85h-32v70H0v32h112v69h32v-69h112v-32H144z"/><path d="M0 85v15l57 39h23z"/></g><g fill="#2e52b2"><path d="M0 108v31h46zM96 85v49L23 85z"/></g><path fill="#d80027" d="M256 85v15l-57 39h-23z"/><g fill="#2e52b2"><path d="M256 108v31h-46zM160 85v49l73-49z"/></g><path fill="#d80027" d="M0 85v15l57 39h23z"/><g fill="#2e52b2"><path d="M0 108v31h46zM96 85v49L23 85z"/></g><path fill="#d80027" d="M256 85v15l-57 39h-23z"/><g fill="#2e52b2"><path d="M256 108v31h-46zM160 85v49l73-49z"/></g><path fill="#d80027" d="M0 256v-15l57-38h23z"/><g fill="#2e52b2"><path d="M0 233v-30h46zM96 256v-49l-73 49z"/></g><path fill="#d80027" d="M256 256v-15l-57-38h-23z"/><g fill="#2e52b2"><path d="M256 233v-30h-46zM160 256v-49l73 49z"/></g></svg>