<?xml version="1.0" encoding="UTF-8"?>

<svg xmlns="http://www.w3.org/2000/svg" viewBox="0 85.333 512 341.333">
<rect y="85.337" fill="#FFFFFF" width="512" height="341.326"/>
<rect y="85.337" fill="#A2001D" width="512" height="113.775"/>
<rect y="312.888" width="512" height="113.775"/>
<g>
	<path fill="#496E2D" d="M219.186,246.069c-0.083,0-0.165,0.006-0.248,0.007v-0.007H189.83   c1.476-5.702,6.649-9.931,12.806-9.931v-19.863c-18.254,0-33.103,14.85-33.103,33.103v16.22v0.331h49.407c0.111,0,0.2,0,0.248,0   c1.825,0,3.31,1.485,3.31,3.31v6.62H156.29v19.862h86.069V269.24C242.359,256.464,231.964,246.069,219.186,246.069z"/>
	<polygon fill="#496E2D" points="268.841,275.862 268.841,216.275 248.98,216.275 248.98,295.724 282.083,295.724    282.083,275.862  "/>
	<polygon fill="#496E2D" points="335.048,275.862 335.048,216.275 315.186,216.275 315.186,275.862 308.566,275.862    308.566,256.001 288.703,256.001 288.703,295.724 348.29,295.724 348.29,275.862  "/>
</g>
</svg>
