<?xml version="1.0" encoding="UTF-8"?>

<svg xmlns="http://www.w3.org/2000/svg" viewBox="0 85.333 512 341.333">
<rect y="85.337" fill="#6DA544" width="512" height="341.326"/>
<polygon points="215.864,256.006 0,399.911 0,112.089 "/>
<polygon points="512,112.089 512,399.911 296.136,256.006 "/>
<polygon fill="#0052B4" points="512,112.089 296.136,256.006 512,399.911 512,426.668 471.875,426.668 256,282.752   40.125,426.668 0,426.668 0,399.911 215.864,256.006 0,112.089 0,85.331 40.125,85.331 256,229.248 471.875,85.331 512,85.331 "/>
<polygon fill="#FFDA44" points="512,112.089 296.136,256.006 512,399.911 512,426.668 471.875,426.668 256,282.752   40.125,426.668 0,426.668 0,399.911 215.864,256.006 0,112.089 0,85.331 40.125,85.331 256,229.248 471.875,85.331 512,85.331 "/>
</svg>
