<?xml version="1.0" encoding="iso-8859-1"?>
<!-- Generator: Adobe Illustrator 19.0.0, SVG Export Plug-In . SVG Version: 6.00 Build 0)  -->
<svg xmlns="http://www.w3.org/2000/svg" xmlns:xlink="http://www.w3.org/1999/xlink" version="1.1" id="Capa_1" x="0px" y="0px" viewBox="0 85.333 512 341.333" style="enable-background:new 0 0 512 512;" xml:space="preserve">
<rect y="85.337" style="fill:#6DA544;" width="512" height="341.326"/>
<polygon points="215.864,256.006 0,399.911 0,112.089 "/>
<polygon points="512,112.089 512,399.911 296.136,256.006 "/>
<polygon style="fill:#0052B4;" points="512,112.089 296.136,256.006 512,399.911 512,426.668 471.875,426.668 256,282.752   40.125,426.668 0,426.668 0,399.911 215.864,256.006 0,112.089 0,85.331 40.125,85.331 256,229.248 471.875,85.331 512,85.331 "/>
<polygon style="fill:#FFDA44;" points="512,112.089 296.136,256.006 512,399.911 512,426.668 471.875,426.668 256,282.752   40.125,426.668 0,426.668 0,399.911 215.864,256.006 0,112.089 0,85.331 40.125,85.331 256,229.248 471.875,85.331 512,85.331 "/>
<g>
</g>
<g>
</g>
<g>
</g>
<g>
</g>
<g>
</g>
<g>
</g>
<g>
</g>
<g>
</g>
<g>
</g>
<g>
</g>
<g>
</g>
<g>
</g>
<g>
</g>
<g>
</g>
<g>
</g>
</svg>
