<?xml version="1.0" encoding="iso-8859-1"?>
<!-- Generator: Adobe Illustrator 19.0.0, SVG Export Plug-In . SVG Version: 6.00 Build 0)  -->
<svg xmlns="http://www.w3.org/2000/svg" xmlns:xlink="http://www.w3.org/1999/xlink" version="1.1" id="Capa_1" x="0px" y="0px" viewBox="0 85.333 512 341.333" style="enable-background:new 0 0 512 512;" xml:space="preserve">
<rect y="85.331" style="fill:#FFFFFF;" width="512" height="341.337"/>
<rect y="85.331" width="512" height="90.579"/>
<rect y="336.089" style="fill:#496E2D;" width="512" height="90.568"/>
<rect y="198.606" style="fill:#A2001D;" width="512" height="114.799"/>
<g>
	<polygon style="fill:#FFFFFF;" points="323.265,139.803 297.682,127.994 256,222.376 214.318,127.994 188.735,139.803    240.484,255.994 188.735,372.186 214.318,383.994 256,289.613 297.682,383.994 323.265,372.186 271.516,255.994  "/>
	<path style="fill:#FFFFFF;" d="M273.376,150.931C263.472,140.115,256,133.898,256,133.898s-7.472,6.216-17.376,17.032v210.127   C248.528,371.873,256,378.091,256,378.091s7.472-6.216,17.376-17.033V150.931z"/>
</g>
<g>
	<path style="fill:#A2001D;" d="M209.04,191.226v129.535c10.465,18.542,23.274,33.742,32.872,43.818V147.408   C232.313,157.484,219.504,172.683,209.04,191.226z"/>
	<path style="fill:#A2001D;" d="M302.96,191.226c-10.465-18.543-23.274-33.742-32.872-43.818V364.58   c9.599-10.077,22.407-25.276,32.872-43.818V191.226z"/>
</g>
<path d="M302.96,191.226v129.535c10.594-18.774,18.784-40.973,18.784-64.767S313.554,210.001,302.96,191.226z"/>
<path d="M209.04,191.226v129.535c-10.594-18.774-18.784-40.973-18.784-64.767S198.446,210.001,209.04,191.226z"/>
<g>
</g>
<g>
</g>
<g>
</g>
<g>
</g>
<g>
</g>
<g>
</g>
<g>
</g>
<g>
</g>
<g>
</g>
<g>
</g>
<g>
</g>
<g>
</g>
<g>
</g>
<g>
</g>
<g>
</g>
</svg>
