<svg xmlns="http://www.w3.org/2000/svg" viewBox="0 0 450 300"><path fill="#CE1126" d="M0 0h450v300H0V0z"/><g transform="translate(-75)" fill="#FCD116" stroke="#BD9C08" stroke-width="1.2"><path d="M349 141c9 3 22 2 28 9-8-2-19 12-28 9 8 5-108 0-98 0-9-3-22-2-28-9 8 2 19-12 28-9-8-5-21-9-24-17 8 5 23-5 30 1-6-7-16-16-16-25 5 8 23 4 27 12-2-9-10-20-7-29 3 9 20 11 22 20 1-9-2-22 4-29-1 9 15 17 13 26 4-8 6-22 13-26-3 8 9 21 4 29 7-6 13-18 22-20-7 6 0 23-7 29 8-4 18-13 27-12-8 4-7 22-16 25 9-1 22-6 30-1-9 0-14 17-24 17h0z"/><path d="M258 150l-31-13 34-1-25-23 32 10-16-30 27 21-4-34 18 29 7-33 7 33 18-29-4 34 27-21-16 30 32-10-25 23 34 1-31 13 31 13H227l31-13h0z"/><circle cx="300" cy="150" r="41.4"/><path d="M314 50h22c0-1-2-3-4-3-5-1-10 1-16 1l-2 2h0z"/><path d="M269 45c6 6 16 11 25 11 13 0 28-11 45-14l-57-1c-7-5-13-4-16-1h-11c-2 1 1 4 3 5h11z"/><path d="M295 41c-2-10-10-14-19-15-10-1-35-3-51-7 7 6 22 10 32 11 11 2 21 5 30 11h8z"/><path d="M288 47c4 5 9 4 15 1 5-4 11-15 14-15 21-1 46-10 58-17-15 2-30 5-45 5-26 0-29 12-40 20"/></g><path fill="#003F87" d="M0 165h450v135H0V165z"/><path fill="#FFF" d="M0 257c15 0 30 13 45 13s30-13 45-13 30 13 45 13 30-13 45-13 30 13 45 13 30-13 45-13 30 13 45 13 30-13 45-13 30 13 45 13 30-13 45-13v-21c-15 0-30 13-45 13s-30-13-45-13-30 13-45 13-30-13-45-13-30 13-45 13-30-13-45-13-30 13-45 13-30-13-45-13-30 13-45 13-30-13-45-13v21zM0 214c15 0 30 13 45 13s30-13 45-13 30 13 45 13 30-13 45-13 30 13 45 13 30-13 45-13 30 13 45 13 30-13 45-13 30 13 45 13 30-13 45-13v-21c-15 0-30 13-45 13s-30-13-45-13-30 13-45 13-30-13-45-13-30 13-45 13-30-13-45-13-30 13-45 13-30-13-45-13-30 13-45 13-30-13-45-13v21zM0 171c15 0 30 13 45 13s30-13 45-13 30 13 45 13 30-13 45-13 30 13 45 13 30-13 45-13 30 13 45 13 30-13 45-13 30 13 45 13 30-13 45-13v-21c-15 0-30 13-45 13s-30-13-45-13-30 13-45 13-30-13-45-13-30 13-45 13-30-13-45-13-30 13-45 13-30-13-45-13-30 13-45 13-30-13-45-13v21z"/></svg>