<?xml version="1.0" encoding="UTF-8"?>

<svg xmlns="http://www.w3.org/2000/svg" viewBox="0 85.333 512 341.333">
<rect y="85.337" fill="#0052B4" width="512" height="341.326"/>
<rect y="85.337" fill="#FFDA44" width="512" height="85.337"/>
<rect y="170.663" fill="#FFFFFF" width="512" height="85.337"/>
<rect y="256" fill="#D80027" width="512" height="85.337"/>
<polygon fill="#6DA544" points="256,256.006 0,426.668 0,85.331 "/>
<g>
	<path fill="#FFFFFF" d="M68.638,256c0-24.865,17.476-45.638,40.812-50.734c-3.587-0.784-7.308-1.208-11.13-1.208   c-28.688,0-51.942,23.255-51.942,51.942s23.255,51.942,51.942,51.942c3.822,0,7.543-0.425,11.13-1.208   C86.113,301.638,68.638,280.865,68.638,256z"/>
	<polygon fill="#FFFFFF" points="108.877,211.478 111.639,219.981 120.579,219.981 113.347,225.237 116.109,233.739    108.877,228.484 101.643,233.739 104.407,225.237 97.173,219.981 106.113,219.981  "/>
	<polygon fill="#FFFFFF" points="108.877,233.739 111.639,242.242 120.579,242.242 113.347,247.497 116.109,256    108.877,250.745 101.643,256 104.407,247.497 97.173,242.242 106.113,242.242  "/>
	<polygon fill="#FFFFFF" points="108.877,256 111.639,264.503 120.579,264.503 113.347,269.758 116.109,278.261    108.877,273.006 101.643,278.261 104.407,269.758 97.173,264.503 106.113,264.503  "/>
	<polygon fill="#FFFFFF" points="108.877,278.261 111.639,286.763 120.579,286.763 113.347,292.019 116.109,300.522    108.877,295.267 101.643,300.522 104.407,292.019 97.173,286.763 106.113,286.763  "/>
</g>
</svg>
