<?xml version="1.0" encoding="UTF-8"?>

<svg xmlns="http://www.w3.org/2000/svg" viewBox="0 85.333 512 341.333">
<rect y="85.333" fill="#D80027" width="512" height="341.337"/>
<polyline fill="#6DA544" points="512,85.33 0,85.33 0,426.663 "/>
<polygon fill="#FFDA44" points="446.679,85.33 417.834,85.33 0,363.887 0,383.117 0,426.663 65.32,426.663 94.165,426.663   512,148.105 512,128.876 512,85.33 "/>
<polygon points="512,85.33 446.679,85.33 0,383.117 0,426.663 65.32,426.663 512,128.876 "/>
<g>
	<polygon fill="#FFFFFF" points="186.241,265.94 205.143,280.47 224.802,266.983 216.825,289.45 235.727,303.98    211.895,303.336 203.916,325.803 197.165,302.936 173.332,302.292 192.992,288.805  "/>
	<polygon fill="#FFFFFF" points="289.182,195.323 308.084,209.853 327.743,196.366 319.766,218.833 338.668,233.363    314.835,232.718 306.857,255.186 300.105,232.319 276.273,231.675 295.933,218.188  "/>
</g>
</svg>
