<?xml version="1.0" encoding="UTF-8"?>

<svg xmlns="http://www.w3.org/2000/svg" viewBox="0 85.333 512 341.333">
<rect y="85.331" fill="#FFFFFF" width="512" height="341.337"/>
<path fill="#D80027" d="M318.33,255.994c0,15.583-27.906,54.539-62.33,54.539s-62.33-38.957-62.33-54.539  c0-34.424,27.906-62.33,62.33-62.33S318.33,221.57,318.33,255.994z"/>
<path fill="#0052B4" d="M318.33,255.994c0,34.424-27.906,62.33-62.33,62.33s-62.33-27.906-62.33-62.33"/>
<rect x="324.205" y="300.55" transform="matrix(0.7071 -0.7071 0.7071 0.7071 -119.6501 327.8224)" width="23.374" height="15.582"/>
<rect x="296.657" y="328.085" transform="matrix(0.7071 -0.7071 0.7071 0.7071 -147.1889 316.408)" width="23.374" height="15.582"/>
<rect x="357.26" y="333.586" transform="matrix(0.7071 -0.7071 0.7071 0.7071 -133.3277 360.8719)" width="23.374" height="15.582"/>
<rect x="329.712" y="361.143" transform="matrix(0.7071 -0.7071 0.7071 0.7071 -160.8823 349.464)" width="23.374" height="15.582"/>
<rect x="340.732" y="317.068" transform="matrix(0.7071 -0.7071 0.7071 0.7071 -126.4889 344.3472)" width="23.374" height="15.582"/>
<rect x="313.185" y="344.614" transform="matrix(0.7071 -0.7071 0.7071 0.7071 -154.0356 332.936)" width="23.374" height="15.582"/>
<rect x="307.483" y="165.555" transform="matrix(-0.7071 -0.7071 0.7071 -0.7071 455.5344 535.3814)" width="62.33" height="15.582"/>
<rect x="296.656" y="168.315" transform="matrix(-0.7071 -0.7071 0.7071 -0.7071 401.8486 518.6624)" width="23.374" height="15.581"/>
<rect x="324.193" y="195.864" transform="matrix(-0.7071 -0.7071 0.7071 -0.7071 429.3763 585.1636)" width="23.374" height="15.581"/>
<rect x="329.693" y="135.257" transform="matrix(-0.7071 -0.7071 0.7071 -0.7071 481.6206 485.591)" width="23.374" height="15.582"/>
<rect x="357.252" y="162.807" transform="matrix(-0.7071 -0.7071 0.7071 -0.7071 509.1863 552.108)" width="23.374" height="15.582"/>
<rect x="125.671" y="347.369" transform="matrix(0.7071 0.7071 -0.7071 0.7071 297.0721 -6.8758)" width="62.33" height="15.582"/>
<rect x="175.435" y="344.62" transform="matrix(0.7071 0.7071 -0.7071 0.7071 303.9983 -29.0962)" width="23.374" height="15.581"/>
<rect x="147.898" y="317.072" transform="matrix(0.7071 0.7071 -0.7071 0.7071 276.4547 -17.6934)" width="23.374" height="15.582"/>
<rect x="158.724" y="314.322" transform="matrix(0.7071 0.7071 -0.7071 0.7071 283.386 -39.9269)" width="62.33" height="15.582"/>
<rect x="125.672" y="149.023" transform="matrix(-0.7071 0.7071 -0.7071 -0.7071 378.6212 156.7987)" width="62.33" height="15.582"/>
<rect x="142.182" y="165.56" transform="matrix(-0.7071 0.7071 -0.7071 -0.7071 418.4998 173.3536)" width="62.33" height="15.582"/>
<rect x="158.712" y="182.089" transform="matrix(-0.7071 0.7071 -0.7071 -0.7071 458.4043 189.8812)" width="62.33" height="15.581"/>
</svg>
