<?xml version="1.0" encoding="UTF-8"?>

<svg xmlns="http://www.w3.org/2000/svg" viewBox="0 85.333 512 341.333">
<rect y="85.334" fill="#0052B4" width="512" height="341.337"/>
<circle fill="#6DA544" cx="384" cy="181.79" r="29.682"/>
<rect x="332.054" y="174.377" fill="#D80027" width="103.88" height="44.522"/>
<path fill="#496E2D" d="M435.942,255.997v-0.001V255.997z"/>
<path fill="#FFDA44" d="M332.058,285.678v29.682h15.616c9.364,9.176,22.18,14.84,36.326,14.84  c14.147,0,26.962-5.664,36.326-14.84h0.776h14.84v-29.682H332.058z"/>
<path fill="#338AF3" d="M332.058,211.475v44.522c0,39.759,51.942,51.942,51.942,51.942s51.942-12.182,51.942-51.942v-44.522  H332.058z"/>
<g>
	<path fill="#F3F3F3" d="M383.997,235.256c-12.985,0-12.985,11.873-25.97,11.873s-12.985-11.873-25.97-11.873v20.777   c12.985,0,12.985,11.873,25.97,11.873s12.985-11.873,25.97-11.873c12.986,0,12.986,11.873,25.973,11.873   c12.986,0,12.986-11.873,25.973-11.873v-20.777c-12.986,0-12.986,11.873-25.973,11.873   C396.984,247.128,396.984,235.256,383.997,235.256z"/>
	<path fill="#F3F3F3" d="M383.997,193.666c-12.985,0-12.985,11.873-25.97,11.873s-12.985-11.873-25.97-11.873v20.777   c12.985,0,12.985,11.873,25.97,11.873s12.985-11.873,25.97-11.873c12.986,0,12.986,11.873,25.973,11.873   c12.986,0,12.986-11.873,25.973-11.873v-20.777c-12.986,0-12.986,11.873-25.973,11.873   C396.984,205.539,396.984,193.666,383.997,193.666z"/>
</g>
<polygon fill="#FFFFFF" points="256,85.334 256,107.951 209.931,138.66 256,138.66 256,202.66 209.931,202.66 256,233.38   256,255.997 233.372,255.997 160,207.078 160,255.997 96,255.997 96,207.078 22.628,255.997 0,255.997 0,233.38 46.069,202.66   0,202.66 0,138.66 46.069,138.66 0,107.951 0,85.334 22.628,85.334 96,134.241 96,85.334 160,85.334 160,134.241 233.372,85.334 "/>
<g>
	<polygon fill="#D80027" points="144,85.329 112,85.329 112,154.663 0,154.663 0,186.663 112,186.663 112,255.997    144,255.997 144,186.663 256,186.663 256,154.663 144,154.663  "/>
	<polygon fill="#D80027" points="0,85.329 0,100.411 57.377,138.663 80,138.663  "/>
	<polygon fill="#D80027" points="256,85.329 256,100.411 198.623,138.663 176,138.663  "/>
	<polygon fill="#D80027" points="0,85.329 0,100.411 57.377,138.663 80,138.663  "/>
	<polygon fill="#D80027" points="256,85.329 256,100.411 198.623,138.663 176,138.663  "/>
	<polygon fill="#D80027" points="0,255.997 0,240.915 57.377,202.663 80,202.663  "/>
	<polygon fill="#D80027" points="256,255.997 256,240.915 198.623,202.663 176,202.663  "/>
</g>
</svg>
