<?xml version="1.0" encoding="iso-8859-1"?>
<!-- Generator: Adobe Illustrator 19.0.0, SVG Export Plug-In . SVG Version: 6.00 Build 0)  -->
<svg xmlns="http://www.w3.org/2000/svg" xmlns:xlink="http://www.w3.org/1999/xlink" version="1.1" id="Capa_1" x="0px" y="0px" viewBox="0 85.333 512 341.333" style="enable-background:new 0 0 512 512;" xml:space="preserve">
<rect y="85.331" style="fill:#338AF3;" width="512" height="341.337"/>
<path style="fill:#FFDA44;" d="M352,265.768H160c0,13.255,11.544,23.999,24.799,23.999h-0.799c0,13.255,10.744,24.001,24.001,24.001  c0,13.255,10.744,24.001,24.001,24.001h48c13.255,0,24.001-10.744,24.001-24.001c13.255,0,24.001-10.744,24.001-24.001h-0.799  C340.454,289.767,352,279.023,352,265.768z"/>
<path style="fill:#338AF3;" d="M322.462,234.384c0,36.705-29.756,66.462-66.462,66.462s-66.462-29.756-66.462-66.462"/>
<polygon style="fill:#FFDA44;" points="321.882,228.163 294.962,239.062 309.297,261.503 280.065,256.689 276.361,282.104   256,263.412 235.638,282.104 231.935,256.689 202.703,261.501 217.037,239.061 190.118,228.163 217.038,217.264 202.703,194.825   231.934,199.638 235.639,174.221 256,192.915 276.362,174.221 280.065,199.638 309.298,194.825 294.963,217.265 "/>
<g>
</g>
<g>
</g>
<g>
</g>
<g>
</g>
<g>
</g>
<g>
</g>
<g>
</g>
<g>
</g>
<g>
</g>
<g>
</g>
<g>
</g>
<g>
</g>
<g>
</g>
<g>
</g>
<g>
</g>
</svg>
