<?xml version="1.0" encoding="UTF-8"?>

<svg xmlns="http://www.w3.org/2000/svg" viewBox="0 85.333 512 341.333">
<path fill="#FFDA44" d="M0,85.329v341.337h512V85.329H0z M489.739,404.405h-267.13V107.59h267.13V404.405z"/>
<rect x="222.609" y="107.595" fill="#A2001D" width="267.13" height="296.815"/>
<rect x="22.261" y="107.595" fill="#D80027" width="200.348" height="296.815"/>
<rect x="200.348" y="85.334" fill="#FFDA44" width="22.261" height="341.337"/>
<rect x="22.261" y="107.595" fill="#6DA544" width="89.043" height="296.815"/>
<rect x="111.304" y="107.595" fill="#FF9811" width="89.043" height="296.815"/>
<g>
	<path fill="#FFDA44" d="M358.675,250.438v-44.522c0-7.424-11.13-14.848-11.13-14.848s-11.13,7.424-11.13,14.848h-44.522   v44.522h22.261v22.261c0,4.875,0.979,9.539,2.76,13.768l-10.184,8.493h-29.674V157.677c-12.299,0-22.261,9.973-22.261,22.261   v96.467c0,6.589,2.861,12.511,7.413,16.584v35.361h14.848v-18.554h66.783v29.685H328.99v14.837h29.685v-29.685l13.601-14.837   h44.288v29.685h-14.848v14.837h29.685v-29.685l13.601-14.837l12.552-40.259l-11.038-19.1h-38.945   C393.402,250.315,366.934,250.527,358.675,250.438z"/>
	<polygon fill="#FFDA44" points="370.551,211.844 370.551,237.073 442.064,237.073 442.064,250.438 446.516,250.438    446.516,232.621 375.003,232.621 375.003,216.296 450.968,216.296 450.968,211.844  "/>
	<rect x="222.609" y="107.595" fill="#FFDA44" width="22.261" height="22.261"/>
	<rect x="467.478" y="107.595" fill="#FFDA44" width="22.261" height="22.261"/>
	<rect x="222.609" y="382.138" fill="#FFDA44" width="22.261" height="22.261"/>
	<rect x="467.478" y="382.138" fill="#FFDA44" width="22.261" height="22.261"/>
</g>
</svg>
