<?xml version="1.0" encoding="UTF-8"?>

<svg xmlns="http://www.w3.org/2000/svg" viewBox="0 85.333 512 341.333">
<rect y="85.337" width="512" height="341.326"/>
<rect y="85.337" fill="#D80027" width="512" height="113.775"/>
<rect y="312.888" fill="#496E2D" width="512" height="113.775"/>
<g>
	<polygon fill="#FFFFFF" points="281.424,236.026 290.386,248.376 304.899,243.67 295.924,256.009 304.885,268.358    290.376,263.634 281.4,275.974 281.41,260.716 266.9,255.991 281.414,251.285  "/>
	<path fill="#FFFFFF" d="M256.965,286.868c-17.048,0-30.868-13.821-30.868-30.868s13.821-30.868,30.868-30.868   c5.316,0,10.317,1.345,14.684,3.71c-6.851-6.698-16.218-10.833-26.556-10.833c-20.982,0-37.992,17.01-37.992,37.992   s17.01,37.992,37.992,37.992c10.338,0,19.706-4.135,26.556-10.833C267.283,285.525,262.281,286.868,256.965,286.868z"/>
</g>
</svg>
