<?xml version="1.0" encoding="UTF-8"?>

<svg xmlns="http://www.w3.org/2000/svg" viewBox="0 85.333 512 341.333">
<rect y="85.331" fill="#FFDA44" width="512" height="341.326"/>
<rect x="330.207" y="85.331" fill="#D80027" width="181.793" height="341.337"/>
<rect y="85.331" fill="#0052B4" width="181.793" height="341.337"/>
<path fill="#FF9811" d="M315.362,219.607H274.55c0-10.244-8.306-18.551-18.551-18.551c-10.246,0-18.551,8.306-18.551,18.551  h-40.812c0,10.088,8.787,18.265,18.874,18.265h-0.608c0,10.088,8.176,18.266,18.265,18.266c0,8.931,6.414,16.353,14.886,17.939  l-14.393,32.495c6.896,2.804,14.434,4.362,22.338,4.362s15.441-1.558,22.338-4.362l-14.392-32.495  c8.471-1.586,14.886-9.008,14.886-17.939c10.089,0,18.265-8.179,18.265-18.266h-0.609  C306.576,237.871,315.362,229.693,315.362,219.607z"/>
<polygon fill="#0052B4" points="256,244.864 231.884,255.994 231.884,278.255 256,293.095 280.116,278.255 280.116,255.994   "/>
<rect x="231.88" y="233.734" fill="#D80027" width="48.228" height="22.261"/>
</svg>
