<?xml version="1.0" encoding="UTF-8"?>

<svg xmlns="http://www.w3.org/2000/svg" viewBox="0 85.333 512 341.333">
<rect y="85.337" fill="#FFDA44" width="512" height="341.326"/>
<rect y="115.011" fill="#A2001D" width="512" height="281.978"/>
<g>
	<polygon fill="#FFDA44" points="218.899,211.478 293.101,211.478 293.101,181.797 278.261,189.217 256,166.957    233.739,189.217 218.899,181.797  "/>
	<path fill="#FFDA44" d="M322.783,256h-37.088c1.455-2.515,2.3-5.427,2.3-8.543c0-9.458-7.668-17.124-17.124-17.124   c-6.534,0-12.209,3.661-15.096,9.041c-2.887-5.38-8.562-9.041-15.096-9.041c-9.456,0-17.124,7.666-17.124,17.124   c0,3.114,0.846,6.026,2.3,8.543h-36.636c0,11.349,9.885,20.549,21.232,20.549h-0.685c0,9.31,6.192,17.168,14.68,19.694   l-16.678,16.678l15.741,15.741l22.329-22.329c0.875,0.321,1.78,0.577,2.714,0.752l-13.492,30.464   c6.466,2.629,13.531,4.088,20.941,4.088s14.475-1.46,20.941-4.088l-13.492-30.464c0.935-0.176,1.839-0.432,2.714-0.752   l22.329,22.329l15.741-15.741l-16.678-16.678c8.488-2.526,14.68-10.385,14.68-19.694h-0.685   C312.898,276.549,322.783,267.349,322.783,256z"/>
</g>
<polygon fill="#6DA544" points="256,267.13 231.884,278.261 231.884,300.522 256,315.362 280.116,300.522 280.116,278.261   "/>
<rect x="231.88" y="256" fill="#0052B4" width="48.228" height="29.682"/>
</svg>
