<?xml version="1.0" encoding="iso-8859-1"?>
<!-- Generator: Adobe Illustrator 19.0.0, SVG Export Plug-In . SVG Version: 6.00 Build 0)  -->
<svg xmlns="http://www.w3.org/2000/svg" xmlns:xlink="http://www.w3.org/1999/xlink" version="1.1" id="Capa_1" x="0px" y="0px" viewBox="0 85.333 512 341.333" style="enable-background:new 0 0 512 512;" xml:space="preserve">
<rect y="85.337" style="fill:#0052B4;" width="512" height="341.326"/>
<g>
	<polygon style="fill:#FFFFFF;" points="233.839,185.115 212.995,194.918 224.095,215.105 201.462,210.775 198.594,233.639    182.829,216.823 167.063,233.639 164.196,210.775 141.562,215.105 152.662,194.918 131.819,185.115 152.662,175.31    141.562,155.125 164.195,159.453 167.064,136.589 182.829,153.405 198.594,136.589 201.462,159.453 224.096,155.125    212.996,175.311  "/>
	<polygon style="fill:#FFFFFF;" points="426.917,85.337 0,421.52 0,425.282 503.756,85.337  "/>
</g>
<polygon style="fill:#FF9811;" points="512,85.337 503.756,85.337 0,425.282 0,426.663 3.723,426.663 512,136.998 "/>
<g>
</g>
<g>
</g>
<g>
</g>
<g>
</g>
<g>
</g>
<g>
</g>
<g>
</g>
<g>
</g>
<g>
</g>
<g>
</g>
<g>
</g>
<g>
</g>
<g>
</g>
<g>
</g>
<g>
</g>
</svg>
