<svg xmlns="http://www.w3.org/2000/svg" viewBox="0 0 750 500"><path fill="#0071BC" d="M0 0h750v500H0V0z"/><g fill="#FFF" stroke="#000" stroke-width="1.9"><path d="M433 396s17-19 34-16c6-19 25-21 25-21s-2-22 22-26c1-15 16-27 16-27s-3-23 12-28c-9-18 4-32 4-32-1 0-17-29-2-37-15-13-11-27-11-27s-16-4-10-24c-14-2-16-24-16-24s-21 4-24-14c-13 2-15-11-15-11s-27 7-33-14c-10 6-15-4-15-4s-15 8-24-7c-18 11-28 0-28 0s-24 15-31 3c-14 14-27 8-27 8s-10 19-27 14c-4 18-24 18-24 18s2 15-21 19c-3 18-15 21-15 21s1 18-10 23c4 10-6 22-6 22s10 14-4 29c14 4 4 28 4 28s19 9 7 25c14 5 10 16 10 23 9 4 17 2 13 20 27 3 14 18 14 18s13 1 8 11c24 0 27 18 27 18s22-6 25 2c3 9-10 66-10 66s-18 0-32-15c-32-1-25-22-25-22-1 0-11 4-16-14-22 5-21-13-21-14s-10-4-6-13c-23 2-21-20-21-20-5-2-7-6-6-11-3-1-22-1-12-27-19-11-7-24-7-24s-26-14-6-29c-15-22 1-33 1-33s-21-21 0-36c-3-32 16-40 16-40s-10-25 17-36c2-27 21-27 21-27s0-21 30-19c6-19 26-15 26-15s6-23 34-12c14-27 35-13 35-13s13-9 20-6c8-14 26-1 38 2 4-1 19-13 30 1 16-10 29 8 29 8s21-10 30 14c45-4 39 25 39 25s35-8 27 27c32 2 29 23 29 23s20 16 11 29c18 1 12 19 12 19s13 5 2 26c26 21 5 42 5 42s14 17 1 36c4 32-12 40-12 40s4 20-13 26c-1 23-23 26-23 26s6 10-17 21c0 16-24 18-24 18s-2 29-31 21c-8 23-42 16-43 16l-6-50h0z"/><path d="M474 420s-3 5 8 10m13-22s12-3 19 0m16-29s-2 5 7 12m-1-25s7 5 19 4m-88 10s1 14-6 20m29-40s12 3 21-2m52-18s2 4 15 3m-64-10s15 4 24 0m4-55s1-1 5 15m7-59s-1 8-8 12m50-46s-10 8-8 11m-40-16s5 8-3 14m-21-51s8 0 12 7m6-61s1 2-2 5m-60-4s4 7 4 16m23-41l9-3m-39-26s-3 9 2 13m-13 28c0 10 7 8 2 17m-21-25l-12 11m-19-16s5 5 4 12m-45-18l-7 11m-30-10s4 8-1 13m-64 20l10 2m-35 21l12-3m-32 18s9 2 11 1m-17 7s3 1 1 15m-40-51l5 8m-21 30c0-1 4 7 11 8m27 29l9-2m-13 30c1 0 0-5 6-9m-14 21c0 1 6 8 10 9m-13 5s6-5 14-5m-16 24s0 6 18 4m-17 18s6-13 17-17m-2 33s2-6 11-9m0 29l9-6m-1 22s4 5 14-3m-63 7c2 0 16-4 21 4m-15 8s16-2 18-1m38 4s-2 4 17-3m6 11c-3 5 1 10-3 13m-55-5c1-1 7-3 6-12m0 26c1-1 11-5 14-3m7 16s1-9 4-10m12 24s9 0 13-3m4-29c0 1 8 5 26 1m-19 38l2 15m237-303h7M401 75s-2 8-6 10m-65-53s0 6-3 11m-34 3s2 6-9 9"/></g><g stroke="#000"><path fill="#8C8A8C" stroke-width="1.9" d="M401 105s22 1 23 13c1 13-5 20-5 20s2 27-19 34c-22 3-57 1-57 1s-11 3-15-19l-5-36s2-12 17-13h61z"/><path fill="#8C8A8C" stroke-width="1.9" d="M403 172c3 2 6 5 6 14l2 17 15 135 13 98 1 15s-3 11-12 12c-7 14-42 18-45 18-3-1-15-5-21-5-7 1-19 5-24 5s-17-5-19-14c-15-4-17-16-17-16l16-112 15-143s2-20 10-22c8-1 49 0 60-2h0z"/><path fill="#FFF" stroke-width="2" stroke-linejoin="round" d="M373 114l30 93h97l-78 56 29 92-78-56-78 57 30-93-79-57h97l30-92z"/></g></svg>