<?xml version="1.0" encoding="UTF-8"?>

<svg xmlns="http://www.w3.org/2000/svg" viewBox="0 85.333 512 341.333">
<rect y="85.331" fill="#0052B4" width="512" height="341.337"/>
<g>
	<polygon fill="#FFFFFF" points="512,233.734 512,278.255 278.261,278.255 278.261,426.657 233.739,426.657 233.739,278.255    0,278.255 0,233.734 233.739,233.734 233.739,85.331 278.261,85.331 278.261,233.734  "/>
	<path fill="#FFFFFF" d="M386.607,175.885c0-2.268,1.845-4.114,4.115-4.114h8.816c13.936,0,25.274-11.337,25.274-25.273   c0-13.935-11.337-25.273-25.274-25.273h-8.372c-2.733-2.052-6.399-3.318-10.443-3.318c-8.436,0-15.273,5.471-15.273,12.219   c0,6.683,6.707,12.104,15.029,12.209l-0.003,0.049h19.062c2.27,0,4.115,1.845,4.115,4.115s-1.845,4.114-4.115,4.114h-8.816   c-13.936,0-25.273,11.337-25.273,25.273c0,13.935,11.336,25.273,25.273,25.273h34.09V180h-34.09   C388.452,179.999,386.607,178.154,386.607,175.885z"/>
	<path fill="#FFFFFF" d="M108.346,175.885c0-2.268,1.845-4.114,4.115-4.114h8.816c13.936,0,25.274-11.337,25.274-25.273   c0-13.935-11.337-25.273-25.274-25.273h-8.372c-2.733-2.052-6.399-3.318-10.443-3.318c-8.436,0-15.273,5.471-15.273,12.219   c0,6.683,6.707,12.104,15.029,12.209l-0.003,0.049h19.062c2.27,0,4.115,1.845,4.115,4.115s-1.845,4.114-4.115,4.114h-8.816   c-13.936,0-25.273,11.337-25.273,25.273c0,13.935,11.336,25.273,25.273,25.273h34.09V180h-34.09   C110.191,179.999,108.346,178.154,108.346,175.885z"/>
	<path fill="#FFFFFF" d="M386.607,368.809c0-2.268,1.845-4.114,4.115-4.114h8.816c13.936,0,25.274-11.337,25.274-25.273   c0-13.935-11.337-25.273-25.274-25.273h-8.372c-2.733-2.052-6.399-3.318-10.443-3.318c-8.436,0-15.273,5.471-15.273,12.219   c0,6.683,6.707,12.104,15.029,12.209l-0.003,0.049h19.062c2.27,0,4.115,1.845,4.115,4.115s-1.845,4.114-4.115,4.114h-8.816   c-13.936,0-25.273,11.337-25.273,25.273c0,13.935,11.336,25.273,25.273,25.273h34.09v-21.159h-34.09   C388.452,372.923,386.607,371.079,386.607,368.809z"/>
	<path fill="#FFFFFF" d="M108.346,368.809c0-2.268,1.845-4.114,4.115-4.114h8.816c13.936,0,25.274-11.337,25.274-25.273   c0-13.935-11.337-25.273-25.274-25.273h-8.372c-2.733-2.052-6.399-3.318-10.443-3.318c-8.436,0-15.273,5.471-15.273,12.219   c0,6.683,6.707,12.104,15.029,12.209l-0.003,0.049h19.062c2.27,0,4.115,1.845,4.115,4.115s-1.845,4.114-4.115,4.114h-8.816   c-13.936,0-25.273,11.337-25.273,25.273c0,13.935,11.336,25.273,25.273,25.273h34.09v-21.159h-34.09   C110.191,372.923,108.346,371.079,108.346,368.809z"/>
</g>
</svg>
