<?xml version="1.0" encoding="iso-8859-1"?>
<!-- Generator: Adobe Illustrator 19.0.0, SVG Export Plug-In . SVG Version: 6.00 Build 0)  -->
<svg xmlns="http://www.w3.org/2000/svg" xmlns:xlink="http://www.w3.org/1999/xlink" version="1.1" id="Capa_1" x="0px" y="0px" viewBox="0 85.333 512 341.333" style="enable-background:new 0 0 512 512;" xml:space="preserve">
<rect y="85.331" style="fill:#496E2D;" width="512" height="341.337"/>
<g>
	<path style="fill:#FFDA44;" d="M256,298.851c-45.956,0-84.348-32.298-93.767-75.429c-1.448,6.63-2.233,13.507-2.233,20.572   c0,53.02,42.979,96,96,96s96-42.98,96-96c0-7.066-0.785-13.942-2.233-20.572C340.348,266.553,301.956,298.851,256,298.851z"/>
	<polygon style="fill:#FFDA44;" points="255.999,171.994 264.934,199.496 293.852,199.496 270.458,216.492 279.394,243.995    255.999,226.997 232.605,243.995 241.542,216.492 218.148,199.496 247.063,199.496  "/>
</g>
<g>
</g>
<g>
</g>
<g>
</g>
<g>
</g>
<g>
</g>
<g>
</g>
<g>
</g>
<g>
</g>
<g>
</g>
<g>
</g>
<g>
</g>
<g>
</g>
<g>
</g>
<g>
</g>
<g>
</g>
</svg>
