<?xml version="1.0" encoding="UTF-8"?>

<svg xmlns="http://www.w3.org/2000/svg" viewBox="0 85.333 512 341.333">
<rect y="85.333" fill="#0052B4" width="512" height="341.337"/>
<path fill="#338AF3" d="M334.222,191.996v78.221c0,38.103,49.777,49.779,49.777,49.779s49.778-11.675,49.778-49.779v-78.221  H334.222z"/>
<path fill="#A2001D" d="M334.222,270.217c0,38.103,49.777,49.779,49.777,49.779s49.778-11.675,49.778-49.779H334.222  L334.222,270.217z"/>
<polygon points="405.334,227.552 391.11,227.552 391.11,213.329 376.888,213.329 376.888,227.552 362.666,227.552 362.666,241.775   376.888,241.775 376.888,284.44 391.11,284.44 391.11,241.775 405.334,241.775 "/>
<polygon fill="#FFFFFF" points="256,85.333 256,115.886 210.833,140.985 256,140.985 256,200.344 196.897,200.344   256,233.179 256,255.996 229.32,255.996 155.826,215.17 155.826,255.996 100.174,255.996 100.174,207.423 12.744,255.996 0,255.996   0,225.442 45.167,200.344 0,200.344 0,140.985 59.103,140.985 0,108.139 0,85.333 26.68,85.333 100.174,126.158 100.174,85.333   155.826,85.333 155.826,133.905 243.256,85.333 "/>
<polygon fill="#D80027" points="144,85.33 112,85.33 112,154.662 0,154.662 0,186.662 112,186.662 112,255.996 144,255.996   144,186.662 256,186.662 256,154.662 144,154.662 "/>
<polygon fill="#0052B4" points="155.826,200.344 256,255.996 256,240.259 184.153,200.344 "/>
<polygon fill="#FFFFFF" points="155.826,200.344 256,255.996 256,240.259 184.153,200.344 "/>
<g>
	<polygon fill="#D80027" points="155.826,200.344 256,255.996 256,240.259 184.153,200.344  "/>
	<polygon fill="#D80027" points="71.846,200.344 0,240.259 0,255.996 0,255.996 100.174,200.344  "/>
</g>
<polygon fill="#0052B4" points="100.174,140.982 0,85.33 0,101.067 71.847,140.982 "/>
<polygon fill="#FFFFFF" points="100.174,140.982 0,85.33 0,101.067 71.847,140.982 "/>
<g>
	<polygon fill="#D80027" points="100.174,140.982 0,85.33 0,101.067 71.847,140.982  "/>
	<polygon fill="#D80027" points="184.154,140.982 256,101.067 256,85.33 256,85.33 155.826,140.982  "/>
</g>
</svg>
