<?xml version="1.0" encoding="iso-8859-1"?>
<!-- Generator: Adobe Illustrator 19.0.0, SVG Export Plug-In . SVG Version: 6.00 Build 0)  -->
<svg xmlns="http://www.w3.org/2000/svg" xmlns:xlink="http://www.w3.org/1999/xlink" version="1.1" id="Capa_1" x="0px" y="0px" viewBox="0 85.333 512 341.333" style="enable-background:new 0 0 512 512;" xml:space="preserve">
<rect y="85.337" style="fill:#FFFFFF;" width="512" height="341.326"/>
<rect y="322.783" style="fill:#FFDA44;" width="512" height="103.88"/>
<rect y="85.337" style="fill:#496E2D;" width="512" height="104.515"/>
<rect y="210.877" width="512" height="89.656"/>
<polygon style="fill:#A2001D;" points="256,256.006 0,426.668 0,85.331 "/>
<polygon style="fill:#FFDA44;" points="83.477,195.132 98.584,241.63 147.478,241.63 107.924,270.369 123.031,316.868   83.477,288.13 43.922,316.868 59.032,270.369 19.478,241.63 68.37,241.63 "/>
<rect x="39.268" y="256" style="fill:#FFFFFF;" width="88.42" height="40.578"/>
<polygon points="144.443,209.479 130.096,195.132 83.478,241.75 36.861,195.132 22.514,209.479 69.172,256.056 22.514,302.714   36.861,316.868 83.478,270.334 130.096,316.868 144.443,302.714 97.784,256.056 "/>
<g>
</g>
<g>
</g>
<g>
</g>
<g>
</g>
<g>
</g>
<g>
</g>
<g>
</g>
<g>
</g>
<g>
</g>
<g>
</g>
<g>
</g>
<g>
</g>
<g>
</g>
<g>
</g>
<g>
</g>
</svg>
