<?xml version="1.0" encoding="iso-8859-1"?>
<!-- Generator: Adobe Illustrator 19.0.0, SVG Export Plug-In . SVG Version: 6.00 Build 0)  -->
<svg xmlns="http://www.w3.org/2000/svg" xmlns:xlink="http://www.w3.org/1999/xlink" version="1.1" id="Capa_1" x="0px" y="0px" viewBox="0 85.333 512 341.333" style="enable-background:new 0 0 512 512;" xml:space="preserve">
<rect y="85.337" style="fill:#496E2D;" width="512" height="341.326"/>
<polyline style="fill:#0052B4;" points="0,426.663 0,85.337 512,85.337 "/>
<polygon style="fill:#FFFFFF;" points="512,152.222 512,85.337 411.67,85.337 0,359.778 0,426.663 100.33,426.663 "/>
<polygon style="fill:#A2001D;" points="512,85.337 512,125.462 60.193,426.663 0,426.663 0,386.538 451.807,85.337 "/>
<polygon style="fill:#FFDA44;" points="187.737,189.212 164.996,199.908 177.106,221.932 152.413,217.208 149.284,242.153   132.085,223.806 114.885,242.153 111.756,217.208 87.063,221.931 99.172,199.908 76.433,189.212 99.173,178.515 87.063,156.493   111.756,161.215 114.886,136.271 132.085,154.618 149.285,136.271 152.413,161.215 177.106,156.493 164.998,178.517 "/>
<g>
</g>
<g>
</g>
<g>
</g>
<g>
</g>
<g>
</g>
<g>
</g>
<g>
</g>
<g>
</g>
<g>
</g>
<g>
</g>
<g>
</g>
<g>
</g>
<g>
</g>
<g>
</g>
<g>
</g>
</svg>
