<?xml version="1.0" encoding="iso-8859-1"?>
<!-- Generator: Adobe Illustrator 19.0.0, SVG Export Plug-In . SVG Version: 6.00 Build 0)  -->
<svg xmlns="http://www.w3.org/2000/svg" xmlns:xlink="http://www.w3.org/1999/xlink" version="1.1" id="Capa_1" x="0px" y="0px" viewBox="0 85.333 512 341.333" style="enable-background:new 0 0 512 512;" xml:space="preserve">
<rect y="85.337" style="fill:#D80027;" width="512" height="341.326"/>
<g>
	<polygon style="fill:#FFFFFF;" points="247.213,216.787 264.807,241.033 293.3,231.794 275.679,256.018 293.271,280.262    264.787,270.988 247.166,295.213 247.184,265.258 218.7,255.983 247.194,246.744  "/>
	<path style="fill:#FFFFFF;" d="M199.202,316.602c-33.469,0-60.602-27.133-60.602-60.602s27.133-60.602,60.602-60.602   c10.436,0,20.254,2.639,28.827,7.284c-13.448-13.152-31.84-21.269-52.135-21.269c-41.193,0-74.586,33.394-74.586,74.586   s33.394,74.586,74.586,74.586c20.295,0,38.687-8.117,52.135-21.269C219.457,313.963,209.638,316.602,199.202,316.602z"/>
</g>
<g>
</g>
<g>
</g>
<g>
</g>
<g>
</g>
<g>
</g>
<g>
</g>
<g>
</g>
<g>
</g>
<g>
</g>
<g>
</g>
<g>
</g>
<g>
</g>
<g>
</g>
<g>
</g>
<g>
</g>
</svg>
