<?xml version="1.0" encoding="UTF-8" standalone="no"?>
<svg viewBox="0 0 900 600" version="1.1" xmlns="http://www.w3.org/2000/svg" xmlns:cc="http://creativecommons.org/ns#" xmlns:dc="http://purl.org/dc/elements/1.1/" xmlns:rdf="http://www.w3.org/1999/02/22-rdf-syntax-ns#">
<clipPath id="c">
<path d="m0 0v150h700v150h-100zm0 300v50h300v-350h300z"/>
</clipPath>
<rect width="900" height="600" fill="#012169"/>
<path d="m0 300h450v-300h450v600h-900z" fill="#0096c8"/>
<path d="m345.34 490.91 29.437 90.597-77.066-55.992h95.259l-77.066 55.993z" fill="#ffce00"/>
<path d="m517.46 464-29.437 90.597-29.437-90.597 77.066 55.992-95.26.00074z" fill="#ffce00"/>
<path d="m517.46 342.02-29.437 90.597-29.437-90.597 77.066 55.992-95.26.00074z" fill="#ffce00"/>
<path d="m643.47 433.17-29.437 90.597-29.437-90.597 77.066 55.992-95.26.00073z" fill="#ffce00"/>
<path d="m643.47 167.75-29.437 90.597-29.437-90.597 77.066 55.992-95.26.00073z" fill="#ffce00"/>
<path d="m696.44 339.96 29.437 90.597-77.067-55.992h95.259l-77.067 55.993z" fill="#ffce00"/>
<path d="m749.36 131.56-29.437 90.597-29.437-90.597 77.067 55.992-95.26.00073z" fill="#ffce00"/>
<path d="m802.84 271.47 29.437 90.597-77.066-55.992h95.259l-77.066 55.993z" fill="#ffce00"/>
<path d="m802.84 37.405 29.437 90.597-77.066-55.992h95.259l-77.066 55.993z" fill="#ffce00"/>
<g transform="scale(1.2)">
<path d="m0 .00029052v30.046l142.43 94.954-142.43 94.954v30.046l45.068 6e-5 142.43-94.954 142.43 94.954 45.068 6e-5-.00029-30.046-142.43-94.954 142.43-94.954v-30.046h-45.068l-142.43 94.954-142.43-94.954z" style="fill-rule:evenodd;fill:#ffffff"/>
<path d="m0 250 125-83.334h27.951l-130.42 83.334zm0-250 125 83.333h-27.951l-97.049-64.699zm222.05 83.333 125-83.333h27.951l-125 83.333zm152.95 166.67-125-83.333h27.951l97.05 64.699z" fill="#c8102e"/>
<path d="m187.5.00029052v250m-187.5-125h375" style="stroke-width:83.333;stroke:#ffffff"/>
<path d="m187.5.00029052v250m-187.5-125h375" style="stroke-width:50;stroke:#c8102e"/>
</g>
</svg>