<?xml version="1.0" encoding="UTF-8"?>

<svg xmlns="http://www.w3.org/2000/svg" viewBox="0 85.333 512 341.333">
<rect y="85.337" width="512" height="341.326"/>
<rect y="142.225" fill="#FFDA44" width="512" height="56.888"/>
<rect y="199.112" fill="#D80027" width="512" height="56.888"/>
<rect y="312.888" fill="#FFDA44" width="512" height="56.888"/>
<rect y="369.775" fill="#D80027" width="512" height="56.888"/>
<circle fill="#FFFFFF" cx="256" cy="256" r="56.954"/>
<path d="M276.863,258.903L256,249.862c0,0,4.881-16.201,5.141-17.31c0.19-0.81,0.292-1.655,0.292-2.523  c0-3.074-1.245-5.857-3.26-7.87l5.247-5.247c-3.357-3.357-7.994-5.433-13.117-5.433c-5.123,0-9.76,2.076-13.117,5.433l5.247,5.247  c-2.015,2.014-3.26,4.796-3.26,7.87c0,1.124,0.17,2.207,0.48,3.23l-7.9,7.9h14.357c0,0-5.936,8.915-9.176,16.237  c-3.24,7.322,0.045,16.259,7.534,19.588l4.33,1.924l7.202,6.771v7.421l-7.421,7.421h14.84v-14.84l6.771-6.771h14.004  c0.068-0.139,0.138-0.275,0.201-0.417C287.726,270.999,284.353,262.231,276.863,258.903z"/>
</svg>
