<?xml version="1.0" encoding="iso-8859-1"?>
<!-- Generator: Adobe Illustrator 19.0.0, SVG Export Plug-In . SVG Version: 6.00 Build 0)  -->
<svg xmlns="http://www.w3.org/2000/svg" xmlns:xlink="http://www.w3.org/1999/xlink" version="1.1" id="Capa_1" x="0px" y="0px" viewBox="0 85.333 512 341.333" style="enable-background:new 0 0 512 512;" xml:space="preserve">
<rect y="85.337" style="fill:#FFFFFF;" width="512" height="341.326"/>
<g>
	<rect y="85.337" style="fill:#338AF3;" width="512" height="48.762"/>
	<rect y="182.862" style="fill:#338AF3;" width="512" height="48.762"/>
	<rect y="280.387" style="fill:#338AF3;" width="512" height="48.762"/>
	<rect y="377.9" style="fill:#338AF3;" width="512" height="48.762"/>
</g>
<rect y="85.337" style="fill:#FFFFFF;" width="256" height="195.05"/>
<polygon style="fill:#FFDA44;" points="192,182.857 165.849,195.158 179.774,220.485 151.377,215.052 147.779,243.739 128,222.641   108.22,243.739 104.623,215.052 76.226,220.484 90.151,195.158 64,182.857 90.151,170.556 76.226,145.23 104.622,150.662   108.221,121.975 128,143.074 147.78,121.975 151.377,150.662 179.775,145.23 165.849,170.557 "/>
<g>
</g>
<g>
</g>
<g>
</g>
<g>
</g>
<g>
</g>
<g>
</g>
<g>
</g>
<g>
</g>
<g>
</g>
<g>
</g>
<g>
</g>
<g>
</g>
<g>
</g>
<g>
</g>
<g>
</g>
</svg>
