<?xml version="1.0" encoding="UTF-8"?>

<svg xmlns="http://www.w3.org/2000/svg" viewBox="0 85.333 512 341.333">
<rect y="85.331" fill="#FFFFFF" width="512" height="341.337"/>
<g>
	<path fill="#FFDA44" d="M284.986,204.557c0-16.008-12.977-28.986-28.986-28.986c-16.008,0-28.986,12.978-28.986,28.986   h-63.768c0,15.761,13.729,28.538,29.49,28.538h-0.949c0,15.762,12.777,28.541,28.54,28.541c0,13.955,10.023,25.551,23.259,28.031   l-0.075,0.167h24.977l-0.073-0.167c13.237-2.48,23.26-14.076,23.26-28.031c15.763,0,28.54-12.778,28.54-28.541h-0.951   c15.761,0,29.49-12.778,29.49-28.538L284.986,204.557L284.986,204.557z"/>
	<path fill="#FFDA44" d="M243.258,286.877l-17.972,40.575c9.483,3.856,19.847,5.997,30.714,5.997   c10.867,0,21.232-2.142,30.713-5.997l-17.971-40.575H243.258z"/>
</g>
<path fill="#FFFFFF" d="M218.899,218.811v49.928c0,28.399,37.101,37.101,37.101,37.101s37.101-8.702,37.101-37.101v-49.928  L218.899,218.811L218.899,218.811z"/>
<g>
	<path fill="#338AF3" d="M126.719,257.195l20.066,56.123l19.857-56.123h15.154l-28.95,74.203h-12.123l-29.158-74.203H126.719   L126.719,257.195z"/>
	<path fill="#338AF3" d="M359.884,331.399v-74.203h14.423v74.203H359.884z"/>
</g>
<g>
	<path fill="#D80027" d="M233.739,234.935v60.503c5.101,3.753,10.588,6.337,14.84,7.989v-68.492L233.739,234.935   L233.739,234.935z"/>
	<path fill="#D80027" d="M278.261,234.935v60.503c-5.101,3.753-10.588,6.337-14.84,7.989v-68.492L278.261,234.935   L278.261,234.935z"/>
</g>
<rect x="218.902" y="218.808" fill="#0052B4" width="74.207" height="23.541"/>
</svg>
