<?xml version="1.0" encoding="UTF-8"?>

<svg xmlns="http://www.w3.org/2000/svg" viewBox="0 85.333 512 341.333">
<rect y="85.331" fill="#0052B4" width="512" height="341.337"/>
<g>
	<polygon fill="#FFFFFF" points="160.299,189.212 163.984,200.549 175.903,200.549 166.26,207.556 169.944,218.892    160.299,211.886 150.655,218.892 154.339,207.556 144.696,200.549 156.615,200.549  "/>
	<polygon fill="#FFFFFF" points="197.4,178.081 201.085,189.419 213.004,189.419 203.361,196.425 207.045,207.762    197.4,200.755 187.756,207.762 191.44,196.425 181.797,189.419 193.716,189.419  "/>
	<polygon fill="#FFFFFF" points="234.503,166.951 238.186,178.288 250.105,178.288 240.462,185.295 244.146,196.631    234.503,189.625 224.858,196.631 228.542,185.295 218.899,178.288 230.818,178.288  "/>
	<polygon fill="#FFFFFF" points="351.701,189.212 348.016,200.549 336.097,200.549 345.74,207.556 342.056,218.892    351.701,211.886 361.345,218.892 357.661,207.556 367.304,200.549 355.385,200.549  "/>
	<polygon fill="#FFFFFF" points="314.6,178.081 310.915,189.419 298.996,189.419 308.639,196.425 304.955,207.762    314.6,200.755 324.244,207.762 320.56,196.425 330.203,189.419 318.284,189.419  "/>
	<polygon fill="#FFFFFF" points="277.497,166.951 273.814,178.288 261.895,178.288 271.538,185.295 267.854,196.631    277.497,189.625 287.142,196.631 283.458,185.295 293.101,178.288 281.181,178.288  "/>
</g>
<path fill="#FFDA44" d="M285.682,263.414L256,226.312l-14.84,7.421v14.84l-22.261,14.84h-14.84v19.172  c21.751,8.808,37.101,30.12,37.101,55.03l0,0H256v-14.84l14.84-14.84l14.84,14.84l14.841-14.839v-14.84l14.84-22.261  L285.682,263.414z"/>
</svg>
